<?xml version="1.0" encoding="UTF-8"?>
<!DOCTYPE svg PUBLIC "-//W3C//DTD SVG 1.1//EN" "http://www.w3.org/Graphics/SVG/1.1/DTD/svg11.dtd">
<!-- Creator: CorelDRAW (Evaluation Version) -->
<svg xmlns="http://www.w3.org/2000/svg" xml:space="preserve" width="206.956mm" height="93.5353mm" version="1.1" style="shape-rendering:geometricPrecision; text-rendering:geometricPrecision; image-rendering:optimizeQuality; fill-rule:evenodd; clip-rule:evenodd"
viewBox="0 0 9102.32 4113.85"
 xmlns:xlink="http://www.w3.org/1999/xlink"
 xmlns:xodm="http://www.corel.com/coreldraw/odm/2003">
 <defs>
  <style type="text/css">
   <![CDATA[
    .fil0 {fill:#144BC8}
    .fil1 {fill:black;fill-rule:nonzero}
    .fil2 {fill:#FD9A18;fill-rule:nonzero}
   ]]>
  </style>
 </defs>
 <g id="Layer_x0020_1">
  <metadata id="CorelCorpID_0Corel-Layer"/>
  <g id="_1911747006880">
   <g>
    <path class="fil0" d="M4566.1 1332.4c263.31,0 504.34,33 690.63,87.68 -148.65,-25.54 -338.67,-40.86 -545.78,-40.86 -476.13,0 -862.11,65.31 -862.11,180.88 0,115.58 424.24,197.14 757.68,194.67 333.44,-2.47 619.49,-96.71 759.68,-140.08l-53.83 329.17c-192.21,64.16 -443.54,129.12 -746.27,129.12 -302.73,0 -622.53,-83.69 -792.91,-192.85l-53.66 -299.33c-8.49,-69.33 6.97,-110.48 110.18,-145.67 192.94,-65.78 444.25,-102.74 736.39,-102.74z"/>
    <path class="fil0" d="M4587.34 678.08c289.99,0 555.44,37.34 760.61,99.24 -163.7,-28.9 -372.98,-46.25 -601.07,-46.25 -524.38,0 -949.46,73.92 -949.46,204.72 0,130.82 420.48,212.49 863.31,211.65 442.83,-0.83 626.65,-86.93 794.64,-134.67l-47.45 353.08c-200.39,87.39 -487.18,150.41 -820.58,150.41 -333.4,0 -675.38,-57.97 -873.24,-158.41l-59.1 -398.63c-9.35,-78.47 7.67,-125.04 121.34,-164.87 212.49,-74.46 489.26,-116.27 810.99,-116.27z"/>
    <path class="fil0" d="M4591.62 0c324.23,0 621.01,40.09 850.41,106.53 -183.03,-31.03 -417.02,-49.65 -672.03,-49.65 -586.29,0 -1061.56,79.35 -1061.56,219.78 0,140.43 531.44,229.39 1044.05,227.66 512.61,-1.73 609.26,-57.16 803.1,-100.37l-48.9 356.13c-236.68,77.95 -542.29,139.74 -915.05,139.74 -372.76,0 -755.12,-62.23 -976.34,-170.06l-66.08 -427.94c-10.45,-84.24 8.58,-134.23 135.67,-176.99 237.58,-79.93 547.02,-124.82 906.75,-124.82z"/>
   </g>
   <path class="fil1" d="M-0 2624.02l309.65 0 0 -217.51 -309.65 0 0 217.51zm0 786.98l309.65 0 0 -722.02 -309.65 0 0 722.02zm1336.8 -383.67l-388.2 -445.6c0,0 -19.63,-15.1 -49.84,-15.1 -58.91,0 -61.93,49.84 -61.93,98.18l0 176.73 490.92 564.93 318.71 0 0 -999.96 -309.65 0 0 620.82zm-450.13 -518.1l-89.12 -102.72 -335.33 0 0 999.96 309.65 0 0 -741.66c0,-71 10.57,-157.09 96.67,-157.09 12.09,0 18.12,1.51 18.12,1.51zm912.35 206.94c58.91,-75.53 145.01,-92.14 206.94,-92.14l888.18 0c-13.59,-113.29 -117.82,-217.51 -253.77,-217.51l-841.36 0 0 309.65zm309.65 -27.19l-102.71 0c-132.93,0 -200.9,84.59 -206.94,247.72l0 474.3 309.65 0 0 -382.16 484.87 0 0 -217.51 -484.87 0 0 -122.35zm1830.74 -282.46l-667.64 0c-140.48,0 -255.28,114.8 -255.28,256.79l0 288.51c0,125.37 99.69,175.21 176.73,175.21l132.92 0 0 -419.92c0,-22.66 4.53,-83.08 81.57,-83.08l540.76 0c74.02,0 179.75,18.13 247.72,104.23l0 -64.95c0,-141.99 -114.8,-256.79 -256.78,-256.79zm9.06 282.46l-63.44 0 1.51 422.94c0,21.15 -4.53,81.57 -81.56,81.57l-611.76 -1.51c-51.36,0 -138.97,-22.66 -176.73,-75.53l0 39.28c0,140.48 116.31,255.28 255.28,255.28l667.64 0c140.47,0 256.78,-114.8 256.78,-255.28l0 -212.98c0,-167.67 -87.61,-253.77 -247.72,-253.77zm1289.97 122.35l-530.19 0c-80.06,0 -81.57,-60.42 -81.57,-81.57l0 -22.66c0,-4.53 0,-10.57 1.51,-16.61 -104.23,0 -246.21,49.84 -246.21,172.2 0,25.68 7.55,49.84 19.64,70.99 51.36,61.93 138.97,95.16 214.49,95.16l530.19 0c80.06,0 83.08,54.88 83.08,79.3l0 3.02c0,0 4.53,82.33 -83.08,82.33l-824.74 0c25.68,126.88 167.67,217.51 294.55,217.51l622.33 0c141.99,0 300.59,-122.35 300.59,-296.82 0,-157.85 -128.39,-302.85 -300.59,-302.85zm0 -404.82l-622.33 0c-140.48,0 -299.08,132.93 -299.08,300.59l0 22.66c0,25.68 4.53,51.36 10.57,74.02 45.31,-143.5 196.37,-179.75 330.8,-179.75l876.1 0c0,0 -58.91,-217.51 -296.06,-217.51zm1267.31 279.44c-16.62,-34.74 -45.31,-70.99 -81.57,-78.55 -67.97,-15.1 -125.37,39.28 -164.65,116.31l-22.66 46.83 98.18 206.94 -197.87 0 -104.22 217.51 406.33 0 102.71 216 311.17 0c-122.35,-255.28 -347.42,-725.05 -347.42,-725.05zm-63.44 -132.92l-71 -146.52 -342.89 0 -480.34 1004.49 309.65 0 342.88 -715.98c63.44,-123.86 140.48,-178.24 241.68,-141.99zm1161.58 -146.52l-330.8 691.56c-43.81,86.35 -125.37,140.73 -208.45,140.73 -21.15,0 -42.29,-4.53 -63.44,-10.57l89.12 182.77 342.89 0 480.34 -1004.49 -309.65 0zm-389.71 662.86l10.57 -22.66 -306.63 -640.2 -309.65 0 332.31 694.58c30.21,39.52 72.5,72.75 123.86,72.75 58.91,0 117.82,-40.78 149.54,-104.47zm1102.67 -40.53l484.87 0 0 -217.51 -484.87 0 0 -122.35 -105.73 0c-119.33,0 -187.31,67.97 -203.92,199.39l0 522.64 841.36 0c151.05,0 244.7,-117.82 253.77,-217.51l-785.47 0 0 -164.65zm-309.65 -317.21c58.91,-72.5 143.5,-87.61 203.92,-87.61l891.2 0c-21.15,-122.35 -117.82,-217.51 -253.77,-217.51l-841.36 0 0 305.12z"/>
   <path class="fil2" d="M1785.35 3977.69l17.23 130.4 -60.99 0 -10.04 -75.55 -44.44 0 -10.16 75.55 -60.86 0 17.29 -129.84 36.82 -233.72 78.47 0 36.69 233.17zm-61.61 -3.29l-14.51 -110.01 -14.5 110.01 29.01 0zm314.51 -186.31l59.75 0 40.29 157.61 0 -157.61 56.65 0 0 320 -59.75 0 -38.49 -153.27 0 153.27 -58.45 0 0 -320zm469.58 256.59c0,45.99 -26.16,69.05 -78.46,69.17 -52.19,0 -78.28,-23.06 -78.28,-69.17l0 -191.76c0,-45.99 26.09,-68.99 78.28,-68.99 52.31,0 78.46,22.99 78.46,68.99l0 191.76zm-60.49 -191.76c0,-11.96 -5.95,-18.04 -17.79,-18.16l-0.37 0c-11.72,0 -17.61,6.07 -17.61,18.16l0 191.76c0,11.96 5.95,17.98 17.79,17.98 11.96,0 17.97,-6.01 17.97,-17.98l0 -191.76zm332.86 255.17l-78.47 0 -36.82 -205.58 -17.29 -114.41 61.05 0 32.11 250.77 32.35 -250.77 60.99 0 -17.23 114.79 -36.69 205.21zm350.27 -114.78l17.23 114.78 -60.99 0 -10.04 -66.5 -44.44 0 -10.16 66.5 -60.86 0 17.29 -114.23 36.82 -205.77 78.47 0 36.69 205.21zm-61.61 -2.91l-14.51 -96.75 -14.5 96.75 29.01 0zm314.51 -245.87l142.36 0 0 57.95 -81.93 0 0 94.76 70.47 0 0 58.14 -70.47 0 0 94.76 81.93 0 0 57.95 -142.36 0 0 -363.57zm293.06 43.57l79.33 0c48.65,0.13 73.01,23.24 73.01,69.23l0 47.17c0,28.94 -13.2,47.72 -39.61,56.34l58.32 147.26 -65.95 0 -41.4 -137.65 -3.29 0 0 137.65 -60.43 0 0 -320zm60.43 51.07l0 83.3 7.31 0c6.5,0 10.72,-0.25 12.7,-0.87 7.63,-2.67 11.4,-8.37 11.4,-17.11l0 -47.17c0,-12.15 -5.88,-18.16 -17.79,-18.16l-13.63 0zm405.18 154.14l17.23 114.78 -60.99 0 -10.04 -66.5 -44.44 0 -10.16 66.5 -60.86 0 17.29 -114.23 36.82 -205.77 78.47 0 36.69 205.21zm-61.61 -2.91l-14.51 -96.75 -14.5 96.75 29.01 0zm314.51 -202.3l83.67 0c48.72,0.13 73.01,23.24 73.01,69.23l0 181.72c0,45.93 -25.35,68.92 -76.05,69.04l-80.64 0 0 -320zm60.43 51.07l0 217.86 18.04 0c11.84,0 17.79,-5.95 17.79,-17.98l0 -181.72c0,-12.15 -5.95,-18.16 -17.79,-18.16l-18.04 0zm405.49 205.52c0,45.99 -26.16,69.05 -78.46,69.17 -52.19,0 -78.28,-23.06 -78.28,-69.17l0 -191.76c0,-45.99 26.09,-68.99 78.28,-68.99 52.31,0 78.46,22.99 78.46,68.99l0 191.76zm-60.49 -191.76c0,-11.96 -5.95,-18.04 -17.79,-18.16l-0.37 0c-11.72,0 -17.61,6.07 -17.61,18.16l0 191.76c0,11.96 5.95,17.98 17.79,17.98 11.96,0 17.97,-6.01 17.97,-17.98l0 -191.76zm308.87 -108.4l60.43 0 0 152.71 35.82 0 0 -152.71 60.43 0 0 363.57 -60.43 0 0 -152.71 -35.82 0 0 152.71 -60.43 0 0 -363.57zm469.58 300.16c0,45.99 -26.16,69.05 -78.46,69.17 -52.19,0 -78.28,-23.06 -78.28,-69.17l0 -191.76c0,-45.99 26.09,-68.99 78.28,-68.99 52.31,0 78.46,22.99 78.46,68.99l0 191.76zm-60.49 -191.76c0,-11.96 -5.95,-18.04 -17.79,-18.16l-0.37 0c-11.72,0 -17.61,6.07 -17.61,18.16l0 191.76c0,11.96 5.95,17.98 17.79,17.98 11.96,0 17.97,-6.01 17.97,-17.98l0 -191.76zm333.04 147.26l55.91 -212.09 59.74 0 0 320 -58.26 0 0 -147.26 -35.64 147.26 -42.46 0 -36.88 -148.19 0 148.19 -58.82 0 0 -320 59.75 0 56.65 212.09zm275.46 -212.09l142.36 0 0 51.07 -81.93 0 0 83.3 70.47 0 0 51.26 -70.47 0 0 83.3 81.93 0 0 51.07 -142.36 0 0 -320zm446.15 256.59c0,45.99 -26.16,69.05 -78.46,69.17 -52.19,0 -78.28,-23.06 -78.28,-69.17l0 -191.76c0,-45.99 26.09,-68.99 78.28,-68.99 52.31,0 78.46,22.99 78.46,68.99l0 45.43 -60.49 0 0 -45.43c0,-11.96 -5.95,-18.04 -17.79,-18.16l-0.37 0c-11.72,0 -17.61,6.07 -17.61,18.16l0 191.76c0,11.96 5.95,17.98 17.79,17.98 11.96,0 17.97,-6.01 17.97,-17.98l0 -45.37 60.49 0 0 45.37zm307.26 -51.38l17.23 114.78 -60.99 0 -10.04 -66.5 -44.44 0 -10.16 66.5 -60.86 0 17.29 -114.23 36.82 -205.77 78.47 0 36.69 205.21zm-61.61 -2.91l-14.51 -96.75 -14.5 96.75 29.01 0zm222.28 -202.3l79.33 0c48.65,0.13 73.01,23.24 73.01,69.23l0 47.17c0,28.94 -13.2,47.72 -39.61,56.34l58.32 147.26 -65.95 0 -41.4 -137.65 -3.29 0 0 137.65 -60.43 0 0 -320zm60.43 51.07l0 83.3 7.31 0c6.5,0 10.72,-0.25 12.7,-0.87 7.63,-2.67 11.4,-8.37 11.4,-17.11l0 -47.17c0,-12.15 -5.88,-18.16 -17.79,-18.16l-13.63 0zm242.49 -51.07l142.36 0 0 51.07 -81.93 0 0 83.3 70.47 0 0 51.26 -70.47 0 0 83.3 81.93 0 0 51.07 -142.36 0 0 -320z"/>
  </g>
 </g>
</svg>
