<?xml version="1.0" encoding="UTF-8"?>
<!DOCTYPE svg PUBLIC "-//W3C//DTD SVG 1.1//EN" "http://www.w3.org/Graphics/SVG/1.1/DTD/svg11.dtd">
<!-- Creator: CorelDRAW (Evaluation Version) -->
<svg xmlns="http://www.w3.org/2000/svg" xml:space="preserve" width="206.956mm" height="93.5353mm" version="1.1" style="shape-rendering:geometricPrecision; text-rendering:geometricPrecision; image-rendering:optimizeQuality; fill-rule:evenodd; clip-rule:evenodd"
viewBox="0 0 2987.05 1350.02"
 xmlns:xlink="http://www.w3.org/1999/xlink"
 xmlns:xodm="http://www.corel.com/coreldraw/odm/2003">
 <defs>
  <style type="text/css">
   <![CDATA[
    .fil0 {fill:white}
    .fil1 {fill:white;fill-rule:nonzero}
   ]]>
  </style>
 </defs>
 <g id="Layer_x0020_1">
  <metadata id="CorelCorpID_0Corel-Layer"/>
  <g id="_1911955825424">
   <g>
    <path class="fil0" d="M1498.43 437.24c86.41,0 165.51,10.83 226.64,28.77 -48.78,-8.38 -111.14,-13.41 -179.1,-13.41 -156.25,0 -282.91,21.43 -282.91,59.36 0,37.93 139.22,64.69 248.64,63.88 109.42,-0.81 203.29,-31.74 249.3,-45.97l-17.66 108.02c-63.08,21.05 -145.55,42.37 -244.9,42.37 -99.34,0 -204.29,-27.46 -260.2,-63.29l-17.61 -98.23c-2.79,-22.75 2.29,-36.25 36.16,-47.8 63.32,-21.59 145.79,-33.71 241.66,-33.71z"/>
    <path class="fil0" d="M1505.4 222.52c95.17,0 182.27,12.26 249.6,32.57 -53.72,-9.49 -122.4,-15.18 -197.25,-15.18 -172.08,0 -311.58,24.26 -311.58,67.18 0,42.93 137.99,69.73 283.31,69.46 145.32,-0.27 205.64,-28.53 260.77,-44.19l-15.57 115.87c-65.76,28.68 -159.88,49.36 -269.28,49.36 -109.41,0 -221.64,-19.02 -286.56,-51.98l-19.39 -130.82c-3.07,-25.75 2.52,-41.03 39.82,-54.1 69.73,-24.43 160.56,-38.16 266.14,-38.16z"/>
    <path class="fil0" d="M1506.8 0c106.4,0 203.79,13.16 279.07,34.96 -60.06,-10.18 -136.85,-16.29 -220.54,-16.29 -192.4,0 -348.36,26.04 -348.36,72.12 0,46.08 174.4,75.28 342.62,74.71 168.22,-0.57 199.94,-18.76 263.55,-32.94l-16.05 116.87c-77.67,25.58 -177.96,45.86 -300.29,45.86 -122.33,0 -247.8,-20.42 -320.4,-55.81l-21.68 -140.44c-3.43,-27.64 2.81,-44.05 44.52,-58.08 77.97,-26.23 179.51,-40.96 297.56,-40.96z"/>
   </g>
   <path class="fil1" d="M-0 861.11l101.62 0 0 -71.38 -101.62 0 0 71.38zm0 258.26l101.62 0 0 -236.94 -101.62 0 0 236.94zm438.69 -125.91l-127.39 -146.23c0,0 -6.44,-4.96 -16.36,-4.96 -19.33,0 -20.32,16.36 -20.32,32.22l0 58 161.1 185.39 104.59 0 0 -328.15 -101.62 0 0 203.73zm-147.72 -170.02l-29.25 -33.71 -110.04 0 0 328.15 101.62 0 0 -243.39c0,-23.3 3.47,-51.55 31.72,-51.55 3.97,0 5.95,0.5 5.95,0.5zm299.4 67.91c19.33,-24.78 47.59,-30.24 67.91,-30.24l291.47 0c-4.46,-37.18 -38.67,-71.38 -83.28,-71.38l-276.1 0 0 101.62zm101.62 -8.92l-33.71 0c-43.62,0 -65.93,27.76 -67.91,81.29l0 155.65 101.62 0 0 -125.41 159.12 0 0 -71.38 -159.12 0 0 -40.15zm600.78 -92.69l-219.1 0c-46.1,0 -83.77,37.67 -83.77,84.27l0 94.68c0,41.14 32.72,57.5 58,57.5l43.62 0 0 -137.8c0,-7.43 1.49,-27.26 26.77,-27.26l177.46 0c24.29,0 58.99,5.95 81.29,34.2l0 -21.31c0,-46.6 -37.67,-84.27 -84.27,-84.27zm2.97 92.69l-20.82 0 0.5 138.79c0,6.94 -1.49,26.77 -26.77,26.77l-200.76 -0.5c-16.85,0 -45.6,-7.43 -58,-24.78l0 12.89c0,46.1 38.17,83.77 83.77,83.77l219.1 0c46.1,0 84.27,-37.67 84.27,-83.77l0 -69.89c0,-55.02 -28.75,-83.28 -81.29,-83.28zm423.32 40.15l-173.99 0c-26.27,0 -26.77,-19.83 -26.77,-26.77l0 -7.44c0,-1.49 0,-3.47 0.5,-5.45 -34.2,0 -80.8,16.36 -80.8,56.51 0,8.43 2.48,16.36 6.44,23.3 16.85,20.32 45.6,31.23 70.39,31.23l173.99 0c26.27,0 27.26,18.01 27.26,26.02l0 0.99c0,0 1.49,27.02 -27.26,27.02l-270.65 0c8.43,41.64 55.02,71.38 96.66,71.38l204.23 0c46.59,0 98.64,-40.15 98.64,-97.4 0,-51.8 -42.13,-99.39 -98.64,-99.39zm0 -132.85l-204.23 0c-46.1,0 -98.15,43.62 -98.15,98.64l0 7.44c0,8.43 1.49,16.85 3.47,24.29 14.87,-47.09 64.44,-58.99 108.56,-58.99l287.5 0c0,0 -19.33,-71.38 -97.16,-71.38zm415.89 91.7c-5.45,-11.4 -14.87,-23.3 -26.77,-25.78 -22.31,-4.96 -41.14,12.89 -54.03,38.17l-7.43 15.37 32.22 67.91 -64.94 0 -34.2 71.38 133.34 0 33.71 70.88 102.11 0c-40.15,-83.77 -114.01,-237.93 -114.01,-237.93zm-20.82 -43.62l-23.3 -48.08 -112.52 0 -157.63 329.64 101.62 0 112.52 -234.96c20.82,-40.65 46.1,-58.49 79.31,-46.59zm381.19 -48.08l-108.56 226.95c-14.38,28.34 -41.14,46.18 -68.41,46.18 -6.94,0 -13.88,-1.49 -20.82,-3.47l29.25 59.98 112.52 0 157.63 -329.64 -101.62 0zm-127.89 217.53l3.47 -7.44 -100.63 -210.09 -101.62 0 109.05 227.94c9.91,12.97 23.79,23.88 40.65,23.88 19.33,0 38.67,-13.38 49.07,-34.28zm361.86 -13.3l159.12 0 0 -71.38 -159.12 0 0 -40.15 -34.7 0c-39.16,0 -61.47,22.31 -66.92,65.43l0 171.51 276.1 0c49.57,0 80.3,-38.66 83.28,-71.38l-257.76 0 0 -54.03zm-101.62 -104.1c19.33,-23.79 47.09,-28.75 66.92,-28.75l292.46 0c-6.94,-40.15 -38.67,-71.38 -83.28,-71.38l-276.1 0 0 100.13z"/>
   <path class="fil1" d="M585.89 1305.33l5.65 42.79 -20.01 0 -3.3 -24.79 -14.58 0 -3.34 24.79 -19.97 0 5.67 -42.61 12.08 -76.7 25.75 0 12.04 76.52zm-20.22 -1.08l-4.76 -36.1 -4.76 36.1 9.52 0zm103.21 -61.14l19.61 0 13.22 51.72 0 -51.72 18.59 0 0 105.01 -19.61 0 -12.63 -50.3 0 50.3 -19.18 0 0 -105.01zm154.1 84.2c0,15.09 -8.58,22.66 -25.75,22.7 -17.13,0 -25.69,-7.57 -25.69,-22.7l0 -62.93c0,-15.09 8.56,-22.64 25.69,-22.64 17.17,0 25.75,7.55 25.75,22.64l0 62.93zm-19.85 -62.93c0,-3.93 -1.95,-5.92 -5.84,-5.96l-0.12 0c-3.85,0 -5.78,1.99 -5.78,5.96l0 62.93c0,3.93 1.95,5.9 5.84,5.9 3.93,0 5.9,-1.97 5.9,-5.9l0 -62.93zm109.23 83.74l-25.75 0 -12.08 -67.47 -5.67 -37.55 20.03 0 10.54 82.29 10.62 -82.29 20.01 0 -5.65 37.67 -12.04 67.34zm114.94 -37.67l5.65 37.67 -20.01 0 -3.3 -21.82 -14.58 0 -3.34 21.82 -19.97 0 5.67 -37.48 12.08 -67.53 25.75 0 12.04 67.34zm-20.22 -0.96l-4.76 -31.75 -4.76 31.75 9.52 0zm103.21 -80.69l46.72 0 0 19.02 -26.89 0 0 31.1 23.12 0 0 19.08 -23.12 0 0 31.1 26.89 0 0 19.02 -46.72 0 0 -119.31zm96.17 14.3l26.03 0c15.97,0.04 23.96,7.63 23.96,22.72l0 15.48c0,9.5 -4.33,15.66 -13,18.49l19.14 48.33 -21.64 0 -13.59 -45.17 -1.08 0 0 45.17 -19.83 0 0 -105.01zm19.83 16.76l0 27.34 2.4 0c2.13,0 3.52,-0.08 4.17,-0.28 2.5,-0.87 3.74,-2.75 3.74,-5.61l0 -15.48c0,-3.99 -1.93,-5.96 -5.84,-5.96l-4.47 0zm132.97 50.58l5.65 37.67 -20.01 0 -3.3 -21.82 -14.58 0 -3.34 21.82 -19.97 0 5.67 -37.48 12.08 -67.53 25.75 0 12.04 67.34zm-20.22 -0.96l-4.76 -31.75 -4.76 31.75 9.52 0zm103.21 -66.39l27.46 0c15.99,0.04 23.96,7.63 23.96,22.72l0 59.64c0,15.07 -8.32,22.62 -24.96,22.66l-26.46 0 0 -105.01zm19.83 16.76l0 71.49 5.92 0c3.88,0 5.84,-1.95 5.84,-5.9l0 -59.64c0,-3.99 -1.95,-5.96 -5.84,-5.96l-5.92 0zm133.07 67.45c0,15.09 -8.58,22.66 -25.75,22.7 -17.13,0 -25.69,-7.57 -25.69,-22.7l0 -62.93c0,-15.09 8.56,-22.64 25.69,-22.64 17.17,0 25.75,7.55 25.75,22.64l0 62.93zm-19.85 -62.93c0,-3.93 -1.95,-5.92 -5.84,-5.96l-0.12 0c-3.85,0 -5.78,1.99 -5.78,5.96l0 62.93c0,3.93 1.95,5.9 5.84,5.9 3.93,0 5.9,-1.97 5.9,-5.9l0 -62.93zm101.36 -35.57l19.83 0 0 50.12 11.76 0 0 -50.12 19.83 0 0 119.31 -19.83 0 0 -50.12 -11.76 0 0 50.12 -19.83 0 0 -119.31zm154.1 98.5c0,15.09 -8.58,22.66 -25.75,22.7 -17.13,0 -25.69,-7.57 -25.69,-22.7l0 -62.93c0,-15.09 8.56,-22.64 25.69,-22.64 17.17,0 25.75,7.55 25.75,22.64l0 62.93zm-19.85 -62.93c0,-3.93 -1.95,-5.92 -5.84,-5.96l-0.12 0c-3.85,0 -5.78,1.99 -5.78,5.96l0 62.93c0,3.93 1.95,5.9 5.84,5.9 3.93,0 5.9,-1.97 5.9,-5.9l0 -62.93zm109.29 48.33l18.35 -69.6 19.61 0 0 105.01 -19.12 0 0 -48.33 -11.7 48.33 -13.93 0 -12.1 -48.63 0 48.63 -19.3 0 0 -105.01 19.61 0 18.59 69.6zm90.4 -69.6l46.72 0 0 16.76 -26.89 0 0 27.34 23.12 0 0 16.82 -23.12 0 0 27.34 26.89 0 0 16.76 -46.72 0 0 -105.01zm146.41 84.2c0,15.09 -8.58,22.66 -25.75,22.7 -17.13,0 -25.69,-7.57 -25.69,-22.7l0 -62.93c0,-15.09 8.56,-22.64 25.69,-22.64 17.17,0 25.75,7.55 25.75,22.64l0 14.91 -19.85 0 0 -14.91c0,-3.93 -1.95,-5.92 -5.84,-5.96l-0.12 0c-3.85,0 -5.78,1.99 -5.78,5.96l0 62.93c0,3.93 1.95,5.9 5.84,5.9 3.93,0 5.9,-1.97 5.9,-5.9l0 -14.89 19.85 0 0 14.89zm100.83 -16.86l5.65 37.67 -20.01 0 -3.3 -21.82 -14.58 0 -3.34 21.82 -19.97 0 5.67 -37.48 12.08 -67.53 25.75 0 12.04 67.34zm-20.22 -0.96l-4.76 -31.75 -4.76 31.75 9.52 0zm72.94 -66.39l26.03 0c15.97,0.04 23.96,7.63 23.96,22.72l0 15.48c0,9.5 -4.33,15.66 -13,18.49l19.14 48.33 -21.64 0 -13.59 -45.17 -1.08 0 0 45.17 -19.83 0 0 -105.01zm19.83 16.76l0 27.34 2.4 0c2.13,0 3.52,-0.08 4.17,-0.28 2.5,-0.87 3.74,-2.75 3.74,-5.61l0 -15.48c0,-3.99 -1.93,-5.96 -5.84,-5.96l-4.47 0zm79.57 -16.76l46.72 0 0 16.76 -26.89 0 0 27.34 23.12 0 0 16.82 -23.12 0 0 27.34 26.89 0 0 16.76 -46.72 0 0 -105.01z"/>
  </g>
 </g>
</svg>
