<?xml version="1.0" encoding="UTF-8"?>
<!DOCTYPE svg PUBLIC "-//W3C//DTD SVG 1.1//EN" "http://www.w3.org/Graphics/SVG/1.1/DTD/svg11.dtd">
<!-- Creator: CorelDRAW (Evaluation Version) -->
<svg xmlns="http://www.w3.org/2000/svg" xml:space="preserve" width="206.956mm" height="93.5353mm" version="1.1" style="shape-rendering:geometricPrecision; text-rendering:geometricPrecision; image-rendering:optimizeQuality; fill-rule:evenodd; clip-rule:evenodd"
viewBox="0 0 4498.01 2032.91"
 xmlns:xlink="http://www.w3.org/1999/xlink"
 xmlns:xodm="http://www.corel.com/coreldraw/odm/2003">
 <defs>
  <style type="text/css">
   <![CDATA[
    .fil0 {fill:black}
    .fil1 {fill:black;fill-rule:nonzero}
   ]]>
  </style>
 </defs>
 <g id="Layer_x0020_1">
  <metadata id="CorelCorpID_0Corel-Layer"/>
  <g id="_1911743583552">
   <g>
    <path class="fil0" d="M2256.39 658.42c130.12,0 249.23,16.31 341.28,43.33 -73.45,-12.62 -167.36,-20.19 -269.7,-20.19 -235.29,0 -426.02,32.27 -426.02,89.39 0,57.11 209.64,97.42 374.41,96.2 164.77,-1.22 306.13,-47.79 375.4,-69.22l-26.6 162.66c-94.98,31.7 -219.18,63.81 -368.78,63.81 -149.6,0 -307.63,-41.36 -391.82,-95.3l-26.52 -147.92c-4.19,-34.26 3.44,-54.59 54.45,-71.98 95.35,-32.51 219.53,-50.77 363.9,-50.77z"/>
    <path class="fil0" d="M2266.89 335.08c143.3,0 274.48,18.45 375.86,49.04 -80.9,-14.28 -184.31,-22.86 -297.03,-22.86 -259.13,0 -469.19,36.53 -469.19,101.17 0,64.64 207.78,105 426.61,104.59 218.83,-0.41 309.67,-42.96 392.68,-66.55l-23.45 174.48c-99.02,43.19 -240.75,74.33 -405.5,74.33 -164.75,0 -333.75,-28.65 -431.52,-78.28l-29.2 -196.99c-4.62,-38.78 3.79,-61.79 59.96,-81.47 105.01,-36.79 241.77,-57.46 400.76,-57.46z"/>
    <path class="fil0" d="M2269 0c160.22,0 306.88,19.81 420.24,52.64 -90.45,-15.33 -206.07,-24.54 -332.09,-24.54 -289.72,0 -524.58,39.21 -524.58,108.61 0,69.39 262.62,113.36 515.93,112.5 253.31,-0.86 301.07,-28.25 396.86,-49.6l-24.17 175.98c-116.96,38.52 -267.98,69.05 -452.18,69.05 -184.2,0 -373.15,-30.75 -482.47,-84.03l-32.65 -211.47c-5.17,-41.63 4.24,-66.33 67.04,-87.46 117.4,-39.5 270.32,-61.68 448.08,-61.68z"/>
   </g>
   <path class="fil1" d="M-0 1296.69l153.02 0 0 -107.49 -153.02 0 0 107.49zm0 388.89l153.02 0 0 -356.8 -153.02 0 0 356.8zm660.59 -189.6l-191.83 -220.2c0,0 -9.7,-7.46 -24.63,-7.46 -29.11,0 -30.6,24.63 -30.6,48.52l0 87.33 242.59 279.17 157.5 0 0 -494.14 -153.02 0 0 306.78zm-222.44 -256.03l-44.04 -50.76 -165.71 0 0 494.14 153.02 0 0 -366.5c0,-35.08 5.22,-77.63 47.77,-77.63 5.97,0 8.96,0.75 8.96,0.75zm450.85 102.26c29.11,-37.32 71.66,-45.53 102.26,-45.53l438.9 0c-6.72,-55.98 -58.22,-107.49 -125.4,-107.49l-415.77 0 0 153.02zm153.02 -13.44l-50.76 0c-65.69,0 -99.28,41.8 -102.26,122.42l0 234.38 153.02 0 0 -188.85 239.61 0 0 -107.49 -239.61 0 0 -60.46zm904.68 -139.58l-329.92 0c-69.42,0 -126.15,56.73 -126.15,126.89l0 142.57c0,61.95 49.26,86.58 87.33,86.58l65.68 0 0 -207.51c0,-11.2 2.24,-41.05 40.31,-41.05l267.22 0c36.58,0 88.83,8.96 122.42,51.51l0 -32.1c0,-70.17 -56.73,-126.89 -126.89,-126.89zm4.48 139.58l-31.35 0 0.75 209c0,10.45 -2.24,40.31 -40.31,40.31l-302.31 -0.75c-25.38,0 -68.67,-11.2 -87.33,-37.32l0 19.41c0,69.42 57.48,126.15 126.15,126.15l329.92 0c69.42,0 126.89,-56.73 126.89,-126.15l0 -105.25c0,-82.85 -43.29,-125.4 -122.42,-125.4zm637.46 60.46l-262 0c-39.56,0 -40.31,-29.86 -40.31,-40.31l0 -11.2c0,-2.24 0,-5.22 0.75,-8.21 -51.51,0 -121.67,24.63 -121.67,85.09 0,12.69 3.73,24.63 9.7,35.08 25.38,30.6 68.67,47.03 105.99,47.03l262 0c39.56,0 41.05,27.12 41.05,39.19l0 1.49c0,0 2.24,40.68 -41.05,40.68l-407.55 0c12.69,62.7 82.85,107.49 145.56,107.49l307.53 0c70.16,0 148.54,-60.46 148.54,-146.67 0,-78 -63.45,-149.66 -148.54,-149.66zm0 -200.05l-307.53 0c-69.42,0 -147.79,65.69 -147.79,148.54l0 11.2c0,12.69 2.24,25.38 5.22,36.58 22.39,-70.91 97.04,-88.83 163.47,-88.83l432.93 0c0,0 -29.11,-107.49 -146.3,-107.49zm626.26 138.09c-8.21,-17.17 -22.39,-35.08 -40.31,-38.81 -33.59,-7.46 -61.95,19.41 -81.36,57.48l-11.2 23.14 48.52 102.26 -97.78 0 -51.5 107.49 200.79 0 50.76 106.74 153.77 0c-60.46,-126.15 -171.68,-358.29 -171.68,-358.29zm-31.35 -65.68l-35.08 -72.41 -169.44 0 -237.36 496.38 153.02 0 169.44 -353.81c31.35,-61.21 69.42,-88.08 119.43,-70.16zm574.01 -72.41l-163.47 341.74c-21.65,42.67 -61.95,69.54 -103.01,69.54 -10.45,0 -20.9,-2.24 -31.35,-5.22l44.04 90.32 169.44 0 237.36 -496.38 -153.02 0zm-192.58 327.56l5.22 -11.2 -151.53 -316.36 -153.02 0 164.21 343.24c14.93,19.53 35.83,35.95 61.21,35.95 29.11,0 58.22,-20.15 73.9,-51.63zm544.9 -20.03l239.61 0 0 -107.49 -239.61 0 0 -60.46 -52.25 0c-58.97,0 -92.56,33.59 -100.77,98.53l0 258.27 415.77 0c74.64,0 120.92,-58.22 125.4,-107.49l-388.15 0 0 -81.36zm-153.02 -156.75c29.11,-35.83 70.91,-43.29 100.77,-43.29l440.4 0c-10.45,-60.46 -58.22,-107.49 -125.4,-107.49l-415.77 0 0 150.78z"/>
   <path class="fil1" d="M882.25 1965.62l8.52 64.44 -30.14 0 -4.96 -37.33 -21.96 0 -5.02 37.33 -30.08 0 8.54 -64.16 18.19 -115.5 38.78 0 18.13 115.22zm-30.44 -1.62l-7.17 -54.36 -7.17 54.36 14.33 0zm155.42 -92.07l29.53 0 19.91 77.89 0 -77.89 27.99 0 0 158.13 -29.53 0 -19.02 -75.74 0 75.74 -28.88 0 0 -158.13zm232.05 126.8c0,22.73 -12.93,34.12 -38.77,34.18 -25.79,0 -38.68,-11.39 -38.68,-34.18l0 -94.76c0,-22.73 12.89,-34.09 38.68,-34.09 25.85,0 38.77,11.36 38.77,34.09l0 94.76zm-29.89 -94.76c0,-5.91 -2.94,-8.91 -8.79,-8.97l-0.18 0c-5.79,0 -8.7,3 -8.7,8.97l0 94.76c0,5.91 2.94,8.88 8.79,8.88 5.91,0 8.88,-2.97 8.88,-8.88l0 -94.76zm164.49 126.09l-38.78 0 -18.19 -101.59 -8.54 -56.54 30.17 0 15.87 123.92 15.99 -123.92 30.14 0 -8.52 56.72 -18.13 101.41zm173.09 -56.72l8.52 56.72 -30.14 0 -4.96 -32.86 -21.96 0 -5.02 32.86 -30.08 0 8.54 -56.45 18.19 -101.69 38.78 0 18.13 101.41zm-30.44 -1.44l-7.17 -47.81 -7.17 47.81 14.33 0zm155.42 -121.5l70.35 0 0 28.64 -40.49 0 0 46.83 34.82 0 0 28.73 -34.82 0 0 46.83 40.49 0 0 28.64 -70.35 0 0 -179.66zm144.82 21.53l39.2 0c24.04,0.06 36.08,11.49 36.08,34.21l0 23.31c0,14.3 -6.52,23.58 -19.57,27.84l28.82 72.77 -32.59 0 -20.46 -68.02 -1.62 0 0 68.02 -29.86 0 0 -158.13zm29.86 25.24l0 41.16 3.61 0c3.21,0 5.3,-0.12 6.28,-0.43 3.77,-1.32 5.64,-4.14 5.64,-8.45l0 -23.31c0,-6 -2.91,-8.97 -8.79,-8.97l-6.74 0zm200.23 76.17l8.52 56.72 -30.14 0 -4.96 -32.86 -21.96 0 -5.02 32.86 -30.08 0 8.54 -56.45 18.19 -101.69 38.78 0 18.13 101.41zm-30.44 -1.44l-7.17 -47.81 -7.17 47.81 14.33 0zm155.42 -99.97l41.35 0c24.07,0.06 36.08,11.49 36.08,34.21l0 89.8c0,22.69 -12.53,34.06 -37.58,34.12l-39.85 0 0 -158.13zm29.86 25.24l0 107.66 8.91 0c5.85,0 8.79,-2.94 8.79,-8.88l0 -89.8c0,-6 -2.94,-8.97 -8.79,-8.97l-8.91 0zm200.38 101.56c0,22.73 -12.93,34.12 -38.77,34.18 -25.79,0 -38.68,-11.39 -38.68,-34.18l0 -94.76c0,-22.73 12.89,-34.09 38.68,-34.09 25.85,0 38.77,11.36 38.77,34.09l0 94.76zm-29.89 -94.76c0,-5.91 -2.94,-8.91 -8.79,-8.97l-0.18 0c-5.79,0 -8.7,3 -8.7,8.97l0 94.76c0,5.91 2.94,8.88 8.79,8.88 5.91,0 8.88,-2.97 8.88,-8.88l0 -94.76zm152.63 -53.57l29.86 0 0 75.47 17.7 0 0 -75.47 29.86 0 0 179.66 -29.86 0 0 -75.47 -17.7 0 0 75.47 -29.86 0 0 -179.66zm232.05 148.33c0,22.73 -12.93,34.12 -38.77,34.18 -25.79,0 -38.68,-11.39 -38.68,-34.18l0 -94.76c0,-22.73 12.89,-34.09 38.68,-34.09 25.85,0 38.77,11.36 38.77,34.09l0 94.76zm-29.89 -94.76c0,-5.91 -2.94,-8.91 -8.79,-8.97l-0.18 0c-5.79,0 -8.7,3 -8.7,8.97l0 94.76c0,5.91 2.94,8.88 8.79,8.88 5.91,0 8.88,-2.97 8.88,-8.88l0 -94.76zm164.58 72.77l27.63 -104.81 29.52 0 0 158.13 -28.79 0 0 -72.77 -17.61 72.77 -20.98 0 -18.22 -73.23 0 73.23 -29.07 0 0 -158.13 29.53 0 27.99 104.81zm136.12 -104.81l70.35 0 0 25.24 -40.49 0 0 41.16 34.82 0 0 25.33 -34.82 0 0 41.16 40.49 0 0 25.24 -70.35 0 0 -158.13zm220.47 126.8c0,22.73 -12.93,34.12 -38.77,34.18 -25.79,0 -38.68,-11.39 -38.68,-34.18l0 -94.76c0,-22.73 12.89,-34.09 38.68,-34.09 25.85,0 38.77,11.36 38.77,34.09l0 22.45 -29.89 0 0 -22.45c0,-5.91 -2.94,-8.91 -8.79,-8.97l-0.18 0c-5.79,0 -8.7,3 -8.7,8.97l0 94.76c0,5.91 2.94,8.88 8.79,8.88 5.91,0 8.88,-2.97 8.88,-8.88l0 -22.42 29.89 0 0 22.42zm151.83 -25.39l8.52 56.72 -30.14 0 -4.96 -32.86 -21.96 0 -5.02 32.86 -30.08 0 8.54 -56.45 18.19 -101.69 38.78 0 18.13 101.41zm-30.44 -1.44l-7.17 -47.81 -7.17 47.81 14.33 0zm109.84 -99.97l39.2 0c24.04,0.06 36.08,11.49 36.08,34.21l0 23.31c0,14.3 -6.52,23.58 -19.57,27.84l28.82 72.77 -32.59 0 -20.46 -68.02 -1.62 0 0 68.02 -29.86 0 0 -158.13zm29.86 25.24l0 41.16 3.61 0c3.21,0 5.3,-0.12 6.28,-0.43 3.77,-1.32 5.64,-4.14 5.64,-8.45l0 -23.31c0,-6 -2.91,-8.97 -8.79,-8.97l-6.74 0zm119.83 -25.24l70.35 0 0 25.24 -40.49 0 0 41.16 34.82 0 0 25.33 -34.82 0 0 41.16 40.49 0 0 25.24 -70.35 0 0 -158.13z"/>
  </g>
 </g>
</svg>
