<svg xmlns="http://www.w3.org/2000/svg" xmlns:xlink="http://www.w3.org/1999/xlink" width="1000" zoomAndPan="magnify" viewBox="0 0 750 749.999995" height="1000" preserveAspectRatio="xMidYMid meet" version="1.0"><defs><clipPath id="9b1dfb550d"><path d="M 184 26.839844 L 717 26.839844 L 717 495 L 184 495 Z M 184 26.839844 " clip-rule="nonzero"/></clipPath><clipPath id="1e02dc2de4"><path d="M 442.585938 490.003906 L 186.109375 41.167969 C 184.414062 38.203125 184.425781 34.5625 186.140625 31.609375 C 187.855469 28.660156 191.007812 26.839844 194.421875 26.839844 L 707.125 26.839844 C 710.539062 26.839844 713.695312 28.660156 715.40625 31.609375 C 717.121094 34.5625 717.132812 38.203125 715.4375 41.167969 L 458.960938 490.003906 C 457.28125 492.941406 454.15625 494.757812 450.773438 494.757812 C 447.390625 494.757812 444.265625 492.941406 442.585938 490.003906 Z M 442.585938 490.003906 " clip-rule="nonzero"/></clipPath><clipPath id="646ed26ebf"><path d="M 184 26.929688 L 717 26.929688 L 717 495 L 184 495 Z M 184 26.929688 " clip-rule="nonzero"/></clipPath><clipPath id="3503582c7c"><path d="M 442.613281 490.007812 L 186.183594 41.253906 C 184.488281 38.289062 184.5 34.648438 186.214844 31.699219 C 187.925781 28.746094 191.082031 26.929688 194.496094 26.929688 L 707.101562 26.929688 C 710.515625 26.929688 713.667969 28.746094 715.382812 31.699219 C 717.09375 34.648438 717.105469 38.289062 715.414062 41.253906 L 458.984375 490.007812 C 457.304688 492.945312 454.179688 494.757812 450.796875 494.757812 C 447.414062 494.757812 444.292969 492.945312 442.613281 490.007812 Z M 442.613281 490.007812 " clip-rule="nonzero"/></clipPath><clipPath id="11c30d4939"><path d="M 6 129.847656 L 539 129.847656 L 539 598 L 6 598 Z M 6 129.847656 " clip-rule="nonzero"/></clipPath><clipPath id="3993dd32ef"><path d="M 264.617188 593.011719 L 8.136719 144.175781 C 6.445312 141.210938 6.457031 137.570312 8.167969 134.617188 C 9.882812 131.664062 13.039062 129.847656 16.449219 129.847656 L 529.152344 129.847656 C 532.566406 129.847656 535.722656 131.664062 537.433594 134.617188 C 539.148438 137.570312 539.160156 141.210938 537.46875 144.175781 L 280.988281 593.011719 C 279.308594 595.949219 276.1875 597.761719 272.800781 597.761719 C 269.417969 597.761719 266.292969 595.949219 264.617188 593.011719 Z M 264.617188 593.011719 " clip-rule="nonzero"/></clipPath><clipPath id="0f7ebac83b"><path d="M 6 129.9375 L 539 129.9375 L 539 598 L 6 598 Z M 6 129.9375 " clip-rule="nonzero"/></clipPath><clipPath id="a3d82d500d"><path d="M 264.640625 593.015625 L 8.210938 144.261719 C 6.519531 141.296875 6.53125 137.65625 8.242188 134.707031 C 9.957031 131.753906 13.109375 129.9375 16.523438 129.9375 L 529.128906 129.9375 C 532.542969 129.9375 535.699219 131.753906 537.410156 134.707031 C 539.125 137.65625 539.136719 141.296875 537.441406 144.261719 L 281.011719 593.015625 C 279.332031 595.953125 276.210938 597.765625 272.828125 597.765625 C 269.445312 597.765625 266.320312 595.953125 264.640625 593.015625 Z M 264.640625 593.015625 " clip-rule="nonzero"/></clipPath><clipPath id="e40fe47b53"><path d="M 211 245.492188 L 744 245.492188 L 744 713.65625 L 211 713.65625 Z M 211 245.492188 " clip-rule="nonzero"/></clipPath><clipPath id="db0fc51968"><path d="M 468.914062 708.65625 L 212.433594 259.816406 C 210.742188 256.855469 210.753906 253.210938 212.464844 250.261719 C 214.179688 247.308594 217.335938 245.492188 220.75 245.492188 L 733.449219 245.492188 C 736.863281 245.492188 740.019531 247.308594 741.734375 250.261719 C 743.445312 253.210938 743.457031 256.855469 741.765625 259.816406 L 485.285156 708.65625 C 483.605469 711.59375 480.484375 713.40625 477.097656 713.40625 C 473.714844 713.40625 470.59375 711.59375 468.914062 708.65625 Z M 468.914062 708.65625 " clip-rule="nonzero"/></clipPath><clipPath id="adfcb85675"><path d="M 211 245.578125 L 743 245.578125 L 743 714 L 211 714 Z M 211 245.578125 " clip-rule="nonzero"/></clipPath><clipPath id="6c2af13f98"><path d="M 468.9375 708.65625 L 212.507812 259.902344 C 210.816406 256.941406 210.828125 253.300781 212.539062 250.347656 C 214.253906 247.398438 217.40625 245.578125 220.820312 245.578125 L 733.425781 245.578125 C 736.839844 245.578125 739.996094 247.398438 741.707031 250.347656 C 743.421875 253.300781 743.433594 256.941406 741.738281 259.902344 L 485.308594 708.65625 C 483.628906 711.59375 480.507812 713.40625 477.125 713.40625 C 473.742188 713.40625 470.617188 711.59375 468.9375 708.65625 Z M 468.9375 708.65625 " clip-rule="nonzero"/></clipPath><clipPath id="2db2d97b98"><path d="M 107 378 L 444 378 L 444 675.585938 L 107 675.585938 Z M 107 378 " clip-rule="nonzero"/></clipPath><clipPath id="31e0fd7f1f"><path d="M 283.632812 383.007812 L 442.636719 661.261719 C 444.328125 664.226562 444.316406 667.867188 442.605469 670.820312 C 440.890625 673.769531 437.734375 675.585938 434.324219 675.585938 L 116.574219 675.585938 C 113.160156 675.585938 110.003906 673.769531 108.292969 670.820312 C 106.578125 667.867188 106.566406 664.226562 108.261719 661.261719 L 267.261719 383.007812 C 268.941406 380.070312 272.066406 378.257812 275.449219 378.257812 C 278.832031 378.257812 281.957031 380.070312 283.632812 383.007812 Z M 283.632812 383.007812 " clip-rule="nonzero"/></clipPath><clipPath id="ab5d48cedf"><path d="M 106 378 L 444 378 L 444 672.351562 L 106 672.351562 Z M 106 378 " clip-rule="nonzero"/></clipPath><clipPath id="44a21ac480"><path d="M 283.539062 383.011719 L 442.460938 661.121094 C 444.152344 664.085938 444.140625 667.722656 442.429688 670.675781 C 440.714844 673.625 437.5625 675.441406 434.152344 675.441406 L 116.566406 675.441406 C 113.152344 675.441406 110 673.625 108.289062 670.675781 C 106.574219 667.722656 106.5625 664.085938 108.257812 661.121094 L 267.175781 383.011719 C 268.855469 380.074219 271.976562 378.265625 275.359375 378.265625 C 278.738281 378.265625 281.863281 380.074219 283.539062 383.011719 Z M 283.539062 383.011719 " clip-rule="nonzero"/></clipPath></defs><g clip-path="url(#9b1dfb550d)"><g clip-path="url(#1e02dc2de4)"><path fill="#ffffff" d="M 723.625 504.332031 L 177.121094 504.332031 L 177.121094 26.839844 L 723.625 26.839844 Z M 723.625 504.332031 " fill-opacity="1" fill-rule="nonzero"/></g></g><g clip-path="url(#646ed26ebf)"><g clip-path="url(#3503582c7c)"><path stroke-linecap="butt" transform="matrix(-11.679538, 0, 0, -11.679538, 723.598911, 504.331291)" fill="none" stroke-linejoin="miter" d="M 24.05794 1.226374 L 46.013405 39.648604 C 46.158557 39.902453 46.157554 40.214163 46.010729 40.466675 C 45.864239 40.719521 45.594001 40.875041 45.30169 40.875041 L 1.4125 40.875041 C 1.120189 40.875041 0.850286 40.719521 0.703461 40.466675 C 0.556971 40.214163 0.555967 39.902453 0.700785 39.648604 L 22.65625 1.226374 C 22.800064 0.974866 23.067626 0.81968 23.357262 0.81968 C 23.646898 0.81968 23.914125 0.974866 24.05794 1.226374 Z M 24.05794 1.226374 " stroke="#004aad" stroke-width="7.705783" stroke-opacity="1" stroke-miterlimit="4"/></g></g><g clip-path="url(#11c30d4939)"><g clip-path="url(#3993dd32ef)"><path fill="#ffffff" d="M 545.652344 607.339844 L -0.847656 607.339844 L -0.847656 129.847656 L 545.652344 129.847656 Z M 545.652344 607.339844 " fill-opacity="1" fill-rule="nonzero"/></g></g><g clip-path="url(#0f7ebac83b)"><g clip-path="url(#a3d82d500d)"><path stroke-linecap="butt" transform="matrix(-11.679538, 0, 0, -11.679538, 545.627376, 607.338446)" fill="none" stroke-linejoin="miter" d="M 24.058036 1.226317 L 46.013501 39.648548 C 46.158318 39.902397 46.157315 40.214107 46.010825 40.466618 C 45.864 40.719464 45.594097 40.874985 45.301786 40.874985 L 1.412596 40.874985 C 1.120285 40.874985 0.850047 40.719464 0.703557 40.466618 C 0.556732 40.214107 0.555729 39.902397 0.700881 39.648548 L 22.656346 1.226317 C 22.80016 0.974809 23.067388 0.819623 23.357024 0.819623 C 23.646659 0.819623 23.914221 0.974809 24.058036 1.226317 Z M 24.058036 1.226317 " stroke="#004aad" stroke-width="7.705783" stroke-opacity="1" stroke-miterlimit="4"/></g></g><g clip-path="url(#e40fe47b53)"><g clip-path="url(#db0fc51968)"><path fill="#ffffff" d="M 749.949219 722.980469 L 203.449219 722.980469 L 203.449219 245.492188 L 749.949219 245.492188 Z M 749.949219 722.980469 " fill-opacity="1" fill-rule="nonzero"/></g></g><g clip-path="url(#adfcb85675)"><g clip-path="url(#6c2af13f98)"><path stroke-linecap="butt" transform="matrix(-11.679538, 0, 0, -11.679538, 749.924678, 722.981169)" fill="none" stroke-linejoin="miter" d="M 24.058073 1.226497 L 46.013537 39.648727 C 46.158355 39.902242 46.157352 40.213952 46.010861 40.466798 C 45.864037 40.719309 45.594134 40.875164 45.301822 40.875164 L 1.412298 40.875164 C 1.120321 40.875164 0.850084 40.719309 0.703593 40.466798 C 0.556769 40.213952 0.555765 39.902242 0.700918 39.648727 L 22.656382 1.226497 C 22.800197 0.974989 23.067424 0.819803 23.35706 0.819803 C 23.646696 0.819803 23.914258 0.974989 24.058073 1.226497 Z M 24.058073 1.226497 " stroke="#004aad" stroke-width="7.705783" stroke-opacity="1" stroke-miterlimit="4"/></g></g><g clip-path="url(#2db2d97b98)"><g clip-path="url(#31e0fd7f1f)"><path fill="#004aad" d="M 100.074219 368.683594 L 451.335938 368.683594 L 451.335938 675.585938 L 100.074219 675.585938 Z M 100.074219 368.683594 " fill-opacity="1" fill-rule="nonzero"/></g></g><g clip-path="url(#ab5d48cedf)"><g clip-path="url(#44a21ac480)"><path stroke-linecap="butt" transform="matrix(11.679539, 0, 0, 11.679539, 100.073897, 368.693644)" fill="none" stroke-linejoin="miter" d="M 15.708254 1.225911 L 29.315116 25.037584 C 29.459933 25.291434 29.45893 25.602809 29.31244 25.855655 C 29.165615 26.108167 28.895712 26.263687 28.603735 26.263687 L 1.412086 26.263687 C 1.119774 26.263687 0.849871 26.108167 0.703381 25.855655 C 0.556556 25.602809 0.555553 25.291434 0.700705 25.037584 L 14.307233 1.225911 C 14.451047 0.974403 14.718275 0.819551 15.00791 0.819551 C 15.297212 0.819551 15.564774 0.974403 15.708254 1.225911 Z M 15.708254 1.225911 " stroke="#ffffff" stroke-width="7.705783" stroke-opacity="1" stroke-miterlimit="4"/></g></g></svg>