<svg xmlns="http://www.w3.org/2000/svg" xmlns:xlink="http://www.w3.org/1999/xlink" width="1000" zoomAndPan="magnify" viewBox="0 0 750 749.999995" height="1000" preserveAspectRatio="xMidYMid meet" version="1.0"><defs><g/><clipPath id="2755d99432"><path d="M 170.636719 0 L 579.386719 0 L 579.386719 500 L 170.636719 500 Z M 170.636719 0 " clip-rule="nonzero"/></clipPath><clipPath id="6f0e8bbcf8"><path d="M 170.636719 0 L 579.386719 0 L 579.386719 500.25 L 170.636719 500.25 Z M 170.636719 0 " clip-rule="nonzero"/></clipPath><clipPath id="1b3adfe8c3"><path d="M 313.242188 141.324219 L 483.808594 141.324219 L 483.808594 290.351562 L 313.242188 290.351562 Z M 313.242188 141.324219 " clip-rule="nonzero"/></clipPath><clipPath id="3e0186d1ca"><path d="M 398.648438 290.351562 L 313.492188 141.324219 L 483.808594 141.324219 Z M 398.648438 290.351562 " clip-rule="nonzero"/></clipPath><clipPath id="0985df187c"><path d="M 313.515625 141.351562 L 483.800781 141.351562 L 483.800781 290.351562 L 313.515625 290.351562 Z M 313.515625 141.351562 " clip-rule="nonzero"/></clipPath><clipPath id="fc66bf9484"><path d="M 398.65625 290.351562 L 313.515625 141.351562 L 483.800781 141.351562 Z M 398.65625 290.351562 " clip-rule="nonzero"/></clipPath><clipPath id="0ceb9a2398"><path d="M 257.695312 173.472656 L 428.261719 173.472656 L 428.261719 322.5 L 257.695312 322.5 Z M 257.695312 173.472656 " clip-rule="nonzero"/></clipPath><clipPath id="68bc5739e3"><path d="M 343.101562 322.5 L 257.945312 173.472656 L 428.261719 173.472656 Z M 343.101562 322.5 " clip-rule="nonzero"/></clipPath><clipPath id="b3de78f221"><path d="M 257.96875 173.5 L 428.253906 173.5 L 428.253906 322.5 L 257.96875 322.5 Z M 257.96875 173.5 " clip-rule="nonzero"/></clipPath><clipPath id="a410140ae0"><path d="M 343.109375 322.5 L 257.96875 173.5 L 428.253906 173.5 Z M 343.109375 322.5 " clip-rule="nonzero"/></clipPath><clipPath id="7f7db2a254"><path d="M 321.457031 209.566406 L 492.023438 209.566406 L 492.023438 358.59375 L 321.457031 358.59375 Z M 321.457031 209.566406 " clip-rule="nonzero"/></clipPath><clipPath id="af9e21f4c0"><path d="M 406.867188 358.59375 L 321.707031 209.566406 L 492.023438 209.566406 Z M 406.867188 358.59375 " clip-rule="nonzero"/></clipPath><clipPath id="8547351693"><path d="M 321.730469 209.59375 L 492.015625 209.59375 L 492.015625 358.59375 L 321.730469 358.59375 Z M 321.730469 209.59375 " clip-rule="nonzero"/></clipPath><clipPath id="b1f7902ddb"><path d="M 406.875 358.59375 L 321.730469 209.59375 L 492.015625 209.59375 Z M 406.875 358.59375 " clip-rule="nonzero"/></clipPath><clipPath id="9d2dc8c370"><path d="M 289.191406 248.015625 L 398.824219 248.015625 L 398.824219 343.800781 L 289.191406 343.800781 Z M 289.191406 248.015625 " clip-rule="nonzero"/></clipPath><clipPath id="75ae103084"><path d="M 343.929688 248.015625 L 398.664062 343.800781 L 289.191406 343.800781 Z M 343.929688 248.015625 " clip-rule="nonzero"/></clipPath><clipPath id="45986df08f"><path d="M 289.191406 248.019531 L 398.550781 248.019531 L 398.550781 342.792969 L 289.191406 342.792969 Z M 289.191406 248.019531 " clip-rule="nonzero"/></clipPath><clipPath id="376c500b8d"><path d="M 343.902344 248.019531 L 398.609375 343.757812 L 289.191406 343.757812 Z M 343.902344 248.019531 " clip-rule="nonzero"/></clipPath></defs><g clip-path="url(#2755d99432)"><path fill="#004aad" d="M 375.136719 0.328125 L 376.921875 0.328125 L 384.605469 4.308594 C 389.730469 6.960938 393.117188 8.703125 394.761719 9.523438 C 396.410156 10.347656 402.015625 13.023438 411.578125 17.554688 C 421.136719 22.082031 426.078125 24.371094 426.398438 24.417969 C 426.71875 24.460938 429.257812 25.535156 434.015625 27.640625 C 438.773438 29.746094 442.433594 31.300781 444.996094 32.308594 C 447.558594 33.316406 451.265625 34.6875 456.113281 36.425781 C 460.964844 38.164062 464.027344 39.261719 465.308594 39.71875 C 466.589844 40.175781 468.191406 40.726562 470.113281 41.367188 C 472.035156 42.007812 474.503906 42.785156 477.523438 43.699219 C 480.542969 44.613281 484.386719 45.710938 489.054688 46.992188 C 493.71875 48.273438 498.25 49.417969 502.640625 50.425781 C 507.03125 51.429688 509.871094 52.070312 511.148438 52.347656 C 512.429688 52.621094 516.503906 53.398438 523.367188 54.679688 C 530.226562 55.960938 534.527344 56.738281 536.265625 57.011719 C 538.003906 57.289062 542.261719 57.972656 549.03125 59.070312 C 555.800781 60.167969 559.234375 60.71875 559.324219 60.71875 C 559.417969 60.71875 562.710938 61.359375 569.207031 62.640625 C 575.703125 63.921875 578.972656 64.585938 579.019531 64.628906 L 579.089844 64.699219 L 578.675781 85.148438 C 578.402344 98.78125 577.714844 116.394531 576.617188 137.988281 C 575.519531 159.582031 574.652344 174.679688 574.011719 183.28125 C 573.371094 191.882812 572.636719 199.25 571.8125 205.378906 C 570.992188 211.507812 570.03125 217.320312 568.933594 222.808594 C 567.832031 228.300781 566.644531 233.835938 565.363281 239.417969 C 564.082031 244.996094 562.9375 249.894531 561.933594 254.101562 C 560.925781 258.3125 559.734375 262.839844 558.363281 267.691406 C 556.992188 272.539062 556.167969 275.46875 555.894531 276.472656 C 555.617188 277.480469 555.207031 278.761719 554.65625 280.316406 C 554.109375 281.871094 553.46875 283.792969 552.738281 286.082031 C 552.003906 288.367188 550.859375 291.664062 549.304688 295.960938 C 547.75 300.261719 546.46875 303.695312 545.460938 306.257812 C 544.457031 308.816406 543.21875 311.882812 541.757812 315.453125 C 540.292969 319.019531 538.417969 323.320312 536.128906 328.351562 C 533.84375 333.386719 532.46875 336.3125 532.011719 337.136719 C 531.554688 337.960938 529.882812 340.957031 527.003906 346.128906 C 524.121094 351.296875 522.382812 354.363281 521.785156 355.324219 C 521.191406 356.285156 519.773438 358.707031 517.53125 362.597656 C 515.289062 366.484375 513.828125 368.957031 513.140625 370.007812 C 512.453125 371.0625 511.402344 372.707031 509.984375 374.949219 C 508.566406 377.191406 507.421875 378.929688 506.550781 380.164062 C 505.683594 381.398438 504.675781 382.863281 503.53125 384.558594 C 502.390625 386.25 501.292969 387.804688 500.238281 389.222656 C 499.1875 390.640625 498.363281 391.832031 497.769531 392.792969 C 497.171875 393.753906 496.304688 394.988281 495.160156 396.496094 C 494.015625 398.007812 492.917969 399.515625 491.867188 401.027344 C 490.816406 402.535156 489.671875 404.089844 488.4375 405.691406 C 487.199219 407.292969 486.148438 408.667969 485.277344 409.808594 C 484.410156 410.953125 482.558594 413.128906 479.71875 416.328125 C 476.882812 419.53125 473.542969 423.191406 469.699219 427.308594 C 465.859375 431.425781 462.472656 434.949219 459.542969 437.878906 C 456.617188 440.804688 454.671875 442.660156 453.710938 443.4375 C 452.75 444.214844 450.507812 446.179688 446.988281 449.339844 C 443.464844 452.496094 441.3125 454.417969 440.535156 455.101562 C 439.757812 455.789062 437.835938 457.480469 434.769531 460.179688 C 431.707031 462.878906 429.691406 464.617188 428.730469 465.394531 C 427.773438 466.175781 426.671875 467.089844 425.4375 468.140625 C 424.203125 469.195312 422.488281 470.632812 420.292969 472.464844 C 418.09375 474.292969 416.425781 475.644531 415.28125 476.511719 C 414.136719 477.382812 413.039062 478.160156 411.988281 478.847656 C 410.9375 479.53125 409.015625 480.722656 406.222656 482.414062 C 403.433594 484.109375 401.601562 485.25 400.734375 485.847656 C 399.863281 486.441406 398.878906 487.058594 397.78125 487.699219 C 396.683594 488.339844 395.542969 489.070312 394.351562 489.894531 C 393.164062 490.71875 392.292969 491.3125 391.742188 491.679688 C 391.195312 492.046875 390.003906 492.6875 388.175781 493.601562 C 386.34375 494.515625 384.148438 495.566406 381.585938 496.757812 C 379.027344 497.945312 377.242188 498.726562 376.234375 499.089844 L 374.726562 499.640625 L 373.078125 499.226562 C 371.980469 498.953125 370.789062 498.496094 369.507812 497.855469 C 368.230469 497.214844 366.078125 496.117188 363.058594 494.5625 C 360.039062 493.007812 358.300781 492.046875 357.84375 491.679688 C 357.386719 491.3125 356.21875 490.511719 354.34375 489.277344 C 352.46875 488.042969 351.050781 487.128906 350.089844 486.53125 C 349.128906 485.9375 347.253906 484.792969 344.460938 483.101562 C 341.671875 481.410156 339.75 480.21875 338.699219 479.53125 C 337.644531 478.847656 336.546875 478.070312 335.402344 477.199219 C 334.257812 476.332031 332.957031 475.300781 331.492188 474.113281 C 330.027344 472.921875 328.082031 471.296875 325.660156 469.238281 C 323.234375 467.179688 321.128906 465.394531 319.34375 463.886719 C 317.5625 462.375 314.953125 460.089844 311.523438 457.023438 C 308.089844 453.957031 305.894531 452.039062 304.933594 451.257812 C 303.972656 450.480469 301.867188 448.652344 298.621094 445.769531 C 295.371094 442.886719 293.566406 441.261719 293.199219 440.898438 C 292.832031 440.53125 291.210938 438.90625 288.328125 436.023438 C 285.445312 433.144531 283.433594 431.085938 282.289062 429.847656 C 281.144531 428.613281 278.628906 425.867188 274.738281 421.613281 C 270.851562 417.359375 268.515625 414.75 267.738281 413.789062 C 266.960938 412.828125 265.816406 411.410156 264.308594 409.535156 C 262.796875 407.660156 261.609375 406.152344 260.738281 405.007812 C 259.871094 403.863281 259 402.671875 258.132812 401.4375 C 257.261719 400.203125 256.347656 398.921875 255.386719 397.59375 C 254.425781 396.269531 253.558594 395.078125 252.78125 394.027344 C 252 392.976562 251.339844 392.035156 250.789062 391.214844 C 250.242188 390.390625 249.484375 389.316406 248.523438 387.988281 C 247.5625 386.660156 246.742188 385.472656 246.054688 384.417969 C 245.367188 383.367188 244.453125 381.996094 243.308594 380.300781 C 242.164062 378.609375 241.296875 377.28125 240.703125 376.320312 C 240.105469 375.359375 239.144531 373.851562 237.820312 371.792969 C 236.492188 369.734375 235.625 368.316406 235.210938 367.539062 C 234.800781 366.761719 233.65625 364.792969 231.78125 361.636719 C 229.90625 358.480469 228.667969 356.421875 228.074219 355.460938 C 227.480469 354.5 225.992188 351.867188 223.613281 347.566406 C 221.234375 343.269531 219.449219 340.019531 218.261719 337.824219 C 217.070312 335.628906 216.019531 333.570312 215.105469 331.648438 C 214.191406 329.726562 212.910156 326.84375 211.261719 323 C 209.613281 319.15625 208.792969 317.191406 208.792969 317.097656 C 208.792969 317.007812 207.96875 314.902344 206.320312 310.785156 C 204.675781 306.667969 203.394531 303.417969 202.476562 301.039062 C 201.5625 298.660156 200.28125 295.046875 198.636719 290.199219 C 196.988281 285.347656 195.339844 280.179688 193.695312 274.6875 C 192.046875 269.199219 190.21875 262.519531 188.203125 254.652344 C 186.191406 246.78125 184.773438 240.925781 183.949219 237.082031 C 183.125 233.238281 181.980469 227.660156 180.519531 220.339844 C 179.054688 213.019531 178.183594 208.214844 177.910156 205.925781 C 177.636719 203.640625 177.042969 196.640625 176.125 184.929688 C 175.210938 173.214844 174.617188 164.386719 174.34375 158.441406 C 174.066406 152.492188 173.746094 146.179688 173.382812 139.5 C 173.015625 132.820312 172.511719 121.886719 171.871094 106.695312 C 171.230469 91.507812 170.910156 80.757812 170.910156 74.441406 L 170.910156 64.972656 L 171.804688 64.492188 C 172.398438 64.171875 174.023438 63.785156 176.675781 63.328125 C 179.328125 62.867188 182.988281 62.273438 187.65625 61.542969 C 192.320312 60.808594 199.414062 59.621094 208.929688 57.972656 C 218.445312 56.328125 225.261719 55.136719 229.378906 54.40625 C 233.496094 53.671875 238.941406 52.527344 245.710938 50.972656 C 252.480469 49.417969 258.339844 47.953125 263.277344 46.582031 C 268.21875 45.210938 272.476562 43.929688 276.042969 42.738281 C 279.613281 41.550781 282.402344 40.632812 284.414062 39.992188 C 286.429688 39.351562 288.351562 38.714844 290.179688 38.074219 C 292.011719 37.433594 295.667969 36.058594 301.160156 33.953125 C 306.648438 31.851562 311.796875 29.722656 316.601562 27.574219 C 321.402344 25.421875 323.964844 24.324219 324.285156 24.277344 C 324.605469 24.234375 326.917969 23.203125 331.21875 21.191406 C 335.519531 19.179688 339.40625 17.347656 342.882812 15.699219 C 346.359375 14.054688 349.792969 12.40625 353.175781 10.761719 C 356.5625 9.113281 360.769531 6.960938 365.804688 4.308594 L 373.351562 0.328125 Z M 375.136719 0.328125 " fill-opacity="1" fill-rule="evenodd"/></g><g clip-path="url(#6f0e8bbcf8)"><path stroke-linecap="butt" transform="matrix(0.274497, 0, 0, 0.274497, 170.499033, -0.082696)" fill="none" stroke-linejoin="miter" d="M 745.499694 1.49663 L 752.003058 1.49663 L 779.994563 15.997567 C 798.665053 25.660115 811.002946 32.006943 816.99401 34.99536 C 822.999305 37.998008 843.420154 47.745939 878.256556 64.253385 C 913.078728 80.7466 931.080383 89.085706 932.247288 89.256473 C 933.414194 89.413009 942.664056 93.326412 959.996874 100.996682 C 977.329692 108.666952 990.663723 114.330713 999.998968 118.002197 C 1009.334213 121.673681 1022.839012 126.668606 1040.499132 133.001204 C 1058.173484 139.333801 1069.33024 143.332588 1073.997863 144.997563 C 1078.665485 146.662538 1084.500013 148.669047 1091.501447 151.002858 C 1098.502881 153.336669 1107.496593 156.16855 1118.496813 159.4985 C 1129.497034 162.82845 1143.499901 166.827237 1160.505416 171.494859 C 1177.496701 176.162482 1194.004147 180.332035 1209.999292 184.003519 C 1225.994438 187.660772 1236.340053 189.994583 1240.993445 191.004953 C 1245.661067 192.001091 1260.503538 194.832972 1285.506626 199.500595 C 1310.495483 204.168217 1326.163326 207.000098 1332.495924 207.996237 C 1338.828521 209.006607 1354.339828 211.496954 1379.001383 215.49574 C 1403.662937 219.494527 1416.171597 221.501035 1416.4989 221.501035 C 1416.840433 221.501035 1428.836792 223.834847 1452.502208 228.502469 C 1476.167623 233.170092 1488.078599 235.589286 1488.249366 235.745823 L 1488.505516 236.001973 L 1486.997077 310.498936 C 1486.000938 360.163579 1483.49636 424.329159 1479.497574 502.995676 C 1475.498787 581.662193 1472.339604 636.663294 1470.005792 667.99898 C 1467.671981 699.334666 1464.996636 726.173495 1461.993989 748.501239 C 1459.005572 770.828982 1455.504855 792.00405 1451.506069 811.997982 C 1447.493052 832.006145 1443.166963 852.170844 1438.49934 872.506309 C 1433.831717 892.827544 1429.662164 910.672662 1426.004911 925.998972 C 1422.333428 941.339512 1417.993108 957.832727 1412.998183 975.507078 C 1408.003257 993.167199 1405.00061 1003.840116 1404.004471 1007.497369 C 1402.994101 1011.168853 1401.499893 1015.836476 1399.493384 1021.500237 C 1397.501106 1027.163999 1395.167295 1034.165432 1392.506181 1042.504539 C 1389.830836 1050.829414 1385.661283 1062.840004 1379.997522 1078.493616 C 1374.33376 1094.161459 1369.666138 1106.670118 1365.994654 1116.005364 C 1362.337401 1125.326378 1357.826315 1136.497365 1352.504086 1149.504094 C 1347.167628 1162.496592 1340.33696 1178.164435 1331.997854 1196.493392 C 1323.672979 1214.836579 1318.663823 1225.495266 1316.998848 1228.497914 C 1315.333872 1231.500561 1309.243194 1242.415398 1298.755274 1261.256655 C 1288.253123 1280.083681 1281.920526 1291.254668 1279.74325 1294.755385 C 1277.580206 1298.256102 1272.414514 1307.079047 1264.246174 1321.252682 C 1256.077835 1335.412086 1250.755607 1344.420028 1248.251029 1348.248048 C 1245.746451 1352.090298 1241.918431 1358.081362 1236.752739 1366.249702 C 1231.587047 1374.418041 1227.417494 1380.750639 1224.24408 1385.247495 C 1221.084896 1389.744351 1217.413412 1395.08081 1213.243859 1401.256871 C 1209.088537 1407.418702 1205.08975 1413.082464 1201.2475 1418.248156 C 1197.41948 1423.413848 1194.416833 1427.754168 1192.253788 1431.254885 C 1190.076513 1434.755601 1186.917329 1439.252457 1182.747776 1444.745452 C 1178.578223 1450.252678 1174.579437 1455.745672 1170.751417 1461.252898 C 1166.923397 1466.745893 1162.753844 1472.409654 1158.256988 1478.244182 C 1153.745902 1484.078711 1149.917882 1489.087867 1146.744468 1493.243189 C 1143.585285 1497.412742 1136.840001 1505.339162 1126.494386 1516.993988 C 1116.163002 1528.663045 1103.995876 1541.997076 1089.993008 1556.996083 C 1076.004371 1571.99509 1063.666479 1584.831052 1052.993561 1595.503969 C 1042.334874 1606.162656 1035.248057 1612.92217 1031.74734 1615.754051 C 1028.246623 1618.585932 1020.078284 1625.743902 1007.256552 1637.256422 C 994.42059 1648.754712 986.579553 1655.756146 983.747673 1658.246493 C 980.915792 1660.751071 973.914358 1666.912902 962.743371 1676.746217 C 951.586615 1686.579531 944.243647 1692.912129 940.74293 1695.74401 C 937.256444 1698.590121 933.243427 1701.920071 928.746571 1705.748091 C 924.249715 1709.590342 918.002501 1714.827186 910.004928 1721.501317 C 901.993125 1728.161218 895.916677 1733.08499 891.747124 1736.244174 C 887.577571 1739.417588 883.578785 1742.249469 879.750765 1744.754047 C 875.922745 1747.244394 868.921311 1751.584714 858.746463 1757.746545 C 848.585846 1763.922607 841.911715 1768.077929 838.752531 1770.255204 C 835.579117 1772.418249 831.993017 1774.666677 827.99423 1777.000488 C 823.995444 1779.3343 819.840121 1781.995414 815.499802 1784.998061 C 811.173712 1788.000709 808.000298 1790.163753 805.99379 1791.501425 C 804.001512 1792.839098 799.661192 1795.172909 793.001292 1798.502859 C 786.327161 1801.83281 778.329588 1805.660829 768.994343 1810.001149 C 759.673328 1814.327238 753.169964 1817.17335 749.49848 1818.496791 L 744.005485 1820.5033 L 738.00019 1818.994861 C 734.001404 1817.998722 729.661084 1816.333747 724.993461 1813.999935 C 720.340069 1811.666124 712.499033 1807.667338 701.498813 1802.003576 C 690.498592 1796.339815 684.165995 1792.839098 682.501019 1791.501425 C 680.836044 1790.163753 676.581108 1787.246489 669.750441 1782.749633 C 662.919774 1778.252777 657.754081 1774.922827 654.253365 1772.745552 C 650.752648 1770.582507 643.92198 1766.412954 633.747132 1760.251123 C 623.586515 1754.089292 616.585081 1749.748972 612.757061 1747.244394 C 608.914811 1744.754047 604.916025 1741.922166 600.746472 1738.748752 C 596.576919 1735.589568 591.838143 1731.832702 586.501684 1727.506612 C 581.165226 1723.166293 574.078409 1717.246381 565.255463 1709.746878 C 556.418288 1702.247374 548.748018 1695.74401 542.244653 1690.251015 C 535.75552 1684.74379 526.249508 1676.418914 513.755079 1665.247927 C 501.24642 1654.07694 493.248847 1647.089737 489.74813 1644.243625 C 486.247413 1641.411745 478.577143 1634.751844 466.75155 1624.249693 C 454.911727 1613.747543 448.33721 1607.827631 446.999538 1606.504189 C 445.661866 1605.166517 439.756185 1599.246605 429.254034 1588.744455 C 418.751883 1578.256534 411.423146 1570.757031 407.253593 1566.245945 C 403.08404 1561.749089 393.919562 1551.745007 379.745927 1536.247931 C 365.586523 1520.750855 357.076651 1511.244843 354.24477 1507.744126 C 351.412889 1504.243409 347.243336 1499.077717 341.750341 1492.24705 C 336.243116 1485.416383 331.917026 1479.923388 328.743612 1475.753835 C 325.584429 1471.584282 322.411015 1467.243962 319.251831 1462.747106 C 316.078417 1458.25025 312.748467 1453.582628 309.24775 1448.744239 C 305.747033 1443.92008 302.587849 1439.57976 299.755968 1435.75174 C 296.909857 1431.923721 294.504893 1428.494157 292.498385 1425.50574 C 290.506107 1422.503092 287.745379 1418.589689 284.244662 1413.7513 C 280.743945 1408.912911 277.755528 1404.586821 275.25095 1400.744571 C 272.746372 1396.916551 269.416422 1391.921626 265.246869 1385.745564 C 261.077316 1379.583733 257.918132 1374.745344 255.755087 1371.244627 C 253.577812 1367.74391 250.077095 1362.250915 245.252937 1354.751412 C 240.414547 1347.251909 237.255364 1342.086217 235.746925 1339.254336 C 234.252716 1336.422455 230.083163 1329.250255 223.252496 1317.751965 C 216.421829 1306.253675 211.910742 1298.754172 209.747698 1295.253455 C 207.584653 1291.752738 202.162811 1282.161343 193.496402 1266.4935 C 184.829993 1250.839888 178.326629 1239.000065 174.00054 1231.002492 C 169.66022 1223.004919 165.8322 1215.505416 162.50225 1208.503982 C 159.1723 1201.502548 154.504677 1191.000397 148.499382 1176.997529 C 142.494087 1162.994662 139.50567 1155.836692 139.50567 1155.495158 C 139.50567 1155.167855 136.503023 1147.497585 130.497728 1132.498579 C 124.506664 1117.499572 119.839041 1105.659749 116.49486 1096.99334 C 113.16491 1088.326931 108.497287 1075.163666 102.506223 1057.503545 C 96.500928 1039.829194 90.495633 1021.002168 84.504569 1000.994005 C 78.499274 981.000073 71.839374 956.665821 64.496406 928.00548 C 57.16767 899.330908 52.001978 877.999304 48.99933 863.996436 C 45.996683 849.993569 41.82713 829.672334 36.504901 803.004271 C 31.168443 776.336208 27.995029 758.832623 26.99889 750.493517 C 26.002751 742.168641 23.839706 716.667484 20.495525 674.004275 C 17.165575 631.326836 15.00253 599.165778 14.006391 577.50687 C 12.996022 555.833733 11.829116 532.837153 10.505675 508.502901 C 9.168002 484.16865 7.33226 444.337322 4.998449 388.994687 C 2.664638 333.666283 1.497732 294.503791 1.497732 271.492981 L 1.497732 236.998112 L 4.75653 235.247753 C 6.919574 234.080847 12.839486 232.672022 22.502034 231.007047 C 32.164582 229.327842 45.498613 227.164797 62.504128 224.503683 C 79.495413 221.828338 105.338104 217.502249 140.00374 211.496954 C 174.669376 205.50589 199.501697 201.16557 214.500704 198.504456 C 229.49971 195.829111 249.337106 191.659558 273.998661 185.995797 C 298.660216 180.332035 320.006051 174.995576 337.993474 170.000651 C 355.995128 165.005726 371.506435 160.338103 384.498933 155.997783 C 397.505662 151.671694 407.666279 148.327513 414.995016 145.993702 C 422.337983 143.659891 429.339417 141.34031 435.999318 139.006499 C 442.673449 136.672687 455.99325 131.663531 476.001412 123.993261 C 495.995344 116.337222 514.751218 108.581569 532.254803 100.754762 C 549.744157 92.913726 559.079402 88.914939 560.246307 88.744173 C 561.413213 88.587637 569.837703 84.83077 585.505545 77.502033 C 601.173388 70.173296 615.332792 63.499165 627.997988 57.49387 C 640.663183 51.502806 653.171842 45.497511 665.495504 39.506447 C 677.833397 33.501152 693.159706 25.660115 711.502894 15.997567 L 738.996329 1.49663 Z M 745.499694 1.49663 " stroke="#000000" stroke-width="2" stroke-opacity="1" stroke-miterlimit="4"/></g><g clip-path="url(#1b3adfe8c3)"><g clip-path="url(#3e0186d1ca)"><path fill="#ffffff" d="M 483.808594 290.351562 L 313.242188 290.351562 L 313.242188 141.324219 L 483.808594 141.324219 Z M 483.808594 290.351562 " fill-opacity="1" fill-rule="nonzero"/></g></g><g clip-path="url(#0985df187c)"><g clip-path="url(#fc66bf9484)"><path stroke-linecap="butt" transform="matrix(-3.645283, 0, 0, -3.645283, 483.800667, 290.351579)" fill="none" stroke-linejoin="miter" d="M 23.357422 0.00000443044 L 46.713804 40.874744 L -0.0000313219 40.874744 Z M 23.357422 0.00000443044 " stroke="#004aad" stroke-width="9.052794" stroke-opacity="1" stroke-miterlimit="4"/></g></g><g clip-path="url(#0ceb9a2398)"><g clip-path="url(#68bc5739e3)"><path fill="#ffffff" d="M 428.261719 322.5 L 257.695312 322.5 L 257.695312 173.472656 L 428.261719 173.472656 Z M 428.261719 322.5 " fill-opacity="1" fill-rule="nonzero"/></g></g><g clip-path="url(#b3de78f221)"><g clip-path="url(#a410140ae0)"><path stroke-linecap="butt" transform="matrix(-3.645283, 0, 0, -3.645283, 428.25423, 322.501)" fill="none" stroke-linejoin="miter" d="M 23.357542 0.000274405 L 46.713924 40.875014 L 0.000088753 40.875014 Z M 23.357542 0.000274405 " stroke="#004aad" stroke-width="9.052794" stroke-opacity="1" stroke-miterlimit="4"/></g></g><g clip-path="url(#7f7db2a254)"><g clip-path="url(#af9e21f4c0)"><path fill="#ffffff" d="M 492.023438 358.59375 L 321.457031 358.59375 L 321.457031 209.566406 L 492.023438 209.566406 Z M 492.023438 358.59375 " fill-opacity="1" fill-rule="nonzero"/></g></g><g clip-path="url(#8547351693)"><g clip-path="url(#b1f7902ddb)"><path stroke-linecap="butt" transform="matrix(-3.645283, 0, 0, -3.645283, 492.017139, 358.594075)" fill="none" stroke-linejoin="miter" d="M 23.356797 0.0000892453 L 46.71425 40.874829 L 0.000415241 40.874829 Z M 23.356797 0.0000892453 " stroke="#004aad" stroke-width="9.052794" stroke-opacity="1" stroke-miterlimit="4"/></g></g><g clip-path="url(#9d2dc8c370)"><g clip-path="url(#75ae103084)"><path fill="#004aad" d="M 289.191406 248.015625 L 398.824219 248.015625 L 398.824219 343.800781 L 289.191406 343.800781 Z M 289.191406 248.015625 " fill-opacity="1" fill-rule="nonzero"/></g></g><g clip-path="url(#45986df08f)"><g clip-path="url(#376c500b8d)"><path stroke-linecap="butt" transform="matrix(3.645283, 0, 0, 3.645283, 289.193192, 248.01789)" fill="none" stroke-linejoin="miter" d="M 15.008204 0.000450373 L 30.015825 26.264056 L -0.000489813 26.264056 Z M 15.008204 0.000450373 " stroke="#ffffff" stroke-width="9.052794" stroke-opacity="1" stroke-miterlimit="4"/></g></g><g fill="#004aad" fill-opacity="1"><g transform="translate(34.550014, 632.758228)"><g><path d="M 31.703125 -95.53125 L 31.703125 0 L 8.4375 0 L 8.4375 -95.53125 Z M 31.703125 -95.53125 "/></g></g></g><g fill="#004aad" fill-opacity="1"><g transform="translate(74.691237, 632.758228)"><g><path d="M 93.890625 0 L 70.625 0 L 31.703125 -58.921875 L 31.703125 0 L 8.4375 0 L 8.4375 -95.53125 L 31.703125 -95.53125 L 70.625 -36.328125 L 70.625 -95.53125 L 93.890625 -95.53125 Z M 93.890625 0 "/></g></g></g><g fill="#004aad" fill-opacity="1"><g transform="translate(177.017423, 632.758228)"><g><path d="M 70.625 -95.53125 L 70.625 -76.890625 L 31.703125 -76.890625 L 31.703125 -56.75 L 60.828125 -56.75 L 60.828125 -38.640625 L 31.703125 -38.640625 L 31.703125 0 L 8.4375 0 L 8.4375 -95.53125 Z M 70.625 -95.53125 "/></g></g></g><g fill="#004aad" fill-opacity="1"><g transform="translate(251.448816, 632.758228)"><g><path d="M 53.609375 0.953125 C 44.628906 0.953125 36.394531 -1.128906 28.90625 -5.296875 C 21.425781 -9.472656 15.484375 -15.300781 11.078125 -22.78125 C 6.679688 -30.269531 4.484375 -38.6875 4.484375 -48.03125 C 4.484375 -57.375 6.679688 -65.765625 11.078125 -73.203125 C 15.484375 -80.648438 21.425781 -86.457031 28.90625 -90.625 C 36.394531 -94.800781 44.628906 -96.890625 53.609375 -96.890625 C 62.597656 -96.890625 70.832031 -94.800781 78.3125 -90.625 C 85.800781 -86.457031 91.695312 -80.648438 96 -73.203125 C 100.3125 -65.765625 102.46875 -57.375 102.46875 -48.03125 C 102.46875 -38.6875 100.289062 -30.269531 95.9375 -22.78125 C 91.582031 -15.300781 85.6875 -9.472656 78.25 -5.296875 C 70.8125 -1.128906 62.597656 0.953125 53.609375 0.953125 Z M 53.609375 -20.28125 C 61.234375 -20.28125 67.335938 -22.816406 71.921875 -27.890625 C 76.503906 -32.972656 78.796875 -39.6875 78.796875 -48.03125 C 78.796875 -56.46875 76.503906 -63.203125 71.921875 -68.234375 C 67.335938 -73.273438 61.234375 -75.796875 53.609375 -75.796875 C 45.898438 -75.796875 39.753906 -73.300781 35.171875 -68.3125 C 30.585938 -63.320312 28.296875 -56.5625 28.296875 -48.03125 C 28.296875 -39.59375 30.585938 -32.859375 35.171875 -27.828125 C 39.753906 -22.796875 45.898438 -20.28125 53.609375 -20.28125 Z M 53.609375 -20.28125 "/></g></g></g><g fill="#004aad" fill-opacity="1"><g transform="translate(358.401409, 632.758228)"><g><path d="M 43 0.953125 C 36.007812 0.953125 29.75 -0.175781 24.21875 -2.4375 C 18.6875 -4.707031 14.265625 -8.066406 10.953125 -12.515625 C 7.640625 -16.960938 5.894531 -22.316406 5.71875 -28.578125 L 30.484375 -28.578125 C 30.847656 -25.035156 32.070312 -22.332031 34.15625 -20.46875 C 36.238281 -18.613281 38.957031 -17.6875 42.3125 -17.6875 C 45.757812 -17.6875 48.484375 -18.476562 50.484375 -20.0625 C 52.484375 -21.65625 53.484375 -23.859375 53.484375 -26.671875 C 53.484375 -29.023438 52.6875 -30.972656 51.09375 -32.515625 C 49.507812 -34.066406 47.5625 -35.335938 45.25 -36.328125 C 42.9375 -37.328125 39.644531 -38.460938 35.375 -39.734375 C 29.207031 -41.640625 24.171875 -43.546875 20.265625 -45.453125 C 16.367188 -47.359375 13.015625 -50.171875 10.203125 -53.890625 C 7.390625 -57.609375 5.984375 -62.460938 5.984375 -68.453125 C 5.984375 -77.335938 9.203125 -84.296875 15.640625 -89.328125 C 22.085938 -94.367188 30.484375 -96.890625 40.828125 -96.890625 C 51.347656 -96.890625 59.828125 -94.367188 66.265625 -89.328125 C 72.710938 -84.296875 76.160156 -77.289062 76.609375 -68.3125 L 51.4375 -68.3125 C 51.257812 -71.394531 50.125 -73.820312 48.03125 -75.59375 C 45.945312 -77.363281 43.269531 -78.25 40 -78.25 C 37.1875 -78.25 34.921875 -77.5 33.203125 -76 C 31.484375 -74.5 30.625 -72.34375 30.625 -69.53125 C 30.625 -66.445312 32.070312 -64.039062 34.96875 -62.3125 C 37.875 -60.59375 42.410156 -58.738281 48.578125 -56.75 C 54.742188 -54.65625 59.753906 -52.65625 63.609375 -50.75 C 67.472656 -48.851562 70.8125 -46.085938 73.625 -42.453125 C 76.4375 -38.828125 77.84375 -34.15625 77.84375 -28.4375 C 77.84375 -23 76.457031 -18.054688 73.6875 -13.609375 C 70.914062 -9.160156 66.898438 -5.617188 61.640625 -2.984375 C 56.378906 -0.359375 50.164062 0.953125 43 0.953125 Z M 43 0.953125 "/></g></g></g><g fill="#004aad" fill-opacity="1"><g transform="translate(442.085675, 632.758228)"><g><path d="M 67.90625 -16.875 L 32.25 -16.875 L 26.53125 0 L 2.171875 0 L 36.734375 -95.53125 L 63.6875 -95.53125 L 98.25 0 L 73.625 0 Z M 61.921875 -34.84375 L 50.078125 -69.8125 L 38.375 -34.84375 Z M 61.921875 -34.84375 "/></g></g></g><g fill="#004aad" fill-opacity="1"><g transform="translate(542.370732, 632.758228)"><g><path d="M 98.109375 -95.53125 L 64.234375 0 L 35.109375 0 L 1.21875 -95.53125 L 25.984375 -95.53125 L 49.671875 -23.40625 L 73.484375 -95.53125 Z M 98.109375 -95.53125 "/></g></g></g><g fill="#004aad" fill-opacity="1"><g transform="translate(641.70331, 632.758228)"><g><path d="M 31.703125 -76.890625 L 31.703125 -57.5625 L 62.875 -57.5625 L 62.875 -39.59375 L 31.703125 -39.59375 L 31.703125 -18.640625 L 66.953125 -18.640625 L 66.953125 0 L 8.4375 0 L 8.4375 -95.53125 L 66.953125 -95.53125 L 66.953125 -76.890625 Z M 31.703125 -76.890625 "/></g></g></g><g fill="#004aad" fill-opacity="1"><g transform="translate(252.396986, 732.105581)"><g><path d="M 19.609375 0.4375 C 16.421875 0.4375 13.566406 -0.078125 11.046875 -1.109375 C 8.523438 -2.148438 6.507812 -3.679688 5 -5.703125 C 3.488281 -7.734375 2.691406 -10.175781 2.609375 -13.03125 L 13.90625 -13.03125 C 14.070312 -11.414062 14.628906 -10.179688 15.578125 -9.328125 C 16.523438 -8.484375 17.765625 -8.0625 19.296875 -8.0625 C 20.867188 -8.0625 22.109375 -8.421875 23.015625 -9.140625 C 23.929688 -9.867188 24.390625 -10.878906 24.390625 -12.171875 C 24.390625 -13.242188 24.023438 -14.128906 23.296875 -14.828125 C 22.578125 -15.535156 21.6875 -16.113281 20.625 -16.5625 C 19.570312 -17.019531 18.078125 -17.539062 16.140625 -18.125 C 13.328125 -18.988281 11.03125 -19.851562 9.25 -20.71875 C 7.46875 -21.59375 5.9375 -22.878906 4.65625 -24.578125 C 3.375 -26.273438 2.734375 -28.488281 2.734375 -31.21875 C 2.734375 -35.269531 4.203125 -38.441406 7.140625 -40.734375 C 10.078125 -43.035156 13.90625 -44.1875 18.625 -44.1875 C 23.414062 -44.1875 27.28125 -43.035156 30.21875 -40.734375 C 33.15625 -38.441406 34.726562 -35.25 34.9375 -31.15625 L 23.453125 -31.15625 C 23.367188 -32.5625 22.851562 -33.664062 21.90625 -34.46875 C 20.957031 -35.28125 19.738281 -35.6875 18.25 -35.6875 C 16.96875 -35.6875 15.929688 -35.34375 15.140625 -34.65625 C 14.359375 -33.976562 13.96875 -33 13.96875 -31.71875 C 13.96875 -30.3125 14.628906 -29.210938 15.953125 -28.421875 C 17.273438 -27.640625 19.34375 -26.789062 22.15625 -25.875 C 24.96875 -24.925781 27.253906 -24.015625 29.015625 -23.140625 C 30.773438 -22.273438 32.296875 -21.015625 33.578125 -19.359375 C 34.859375 -17.703125 35.5 -15.570312 35.5 -12.96875 C 35.5 -10.488281 34.867188 -8.234375 33.609375 -6.203125 C 32.347656 -4.179688 30.515625 -2.566406 28.109375 -1.359375 C 25.710938 -0.160156 22.878906 0.4375 19.609375 0.4375 Z M 19.609375 0.4375 "/></g></g></g><g fill="#004aad" fill-opacity="1"><g transform="translate(290.554659, 732.105581)"><g><path d="M 41.203125 -43.5625 L 26.125 -14.40625 L 26.125 0 L 15.515625 0 L 15.515625 -14.40625 L 0.4375 -43.5625 L 12.46875 -43.5625 L 20.921875 -25.328125 L 29.296875 -43.5625 Z M 41.203125 -43.5625 "/></g></g></g><g fill="#004aad" fill-opacity="1"><g transform="translate(332.186853, 732.105581)"><g><path d="M 19.609375 0.4375 C 16.421875 0.4375 13.566406 -0.078125 11.046875 -1.109375 C 8.523438 -2.148438 6.507812 -3.679688 5 -5.703125 C 3.488281 -7.734375 2.691406 -10.175781 2.609375 -13.03125 L 13.90625 -13.03125 C 14.070312 -11.414062 14.628906 -10.179688 15.578125 -9.328125 C 16.523438 -8.484375 17.765625 -8.0625 19.296875 -8.0625 C 20.867188 -8.0625 22.109375 -8.421875 23.015625 -9.140625 C 23.929688 -9.867188 24.390625 -10.878906 24.390625 -12.171875 C 24.390625 -13.242188 24.023438 -14.128906 23.296875 -14.828125 C 22.578125 -15.535156 21.6875 -16.113281 20.625 -16.5625 C 19.570312 -17.019531 18.078125 -17.539062 16.140625 -18.125 C 13.328125 -18.988281 11.03125 -19.851562 9.25 -20.71875 C 7.46875 -21.59375 5.9375 -22.878906 4.65625 -24.578125 C 3.375 -26.273438 2.734375 -28.488281 2.734375 -31.21875 C 2.734375 -35.269531 4.203125 -38.441406 7.140625 -40.734375 C 10.078125 -43.035156 13.90625 -44.1875 18.625 -44.1875 C 23.414062 -44.1875 27.28125 -43.035156 30.21875 -40.734375 C 33.15625 -38.441406 34.726562 -35.25 34.9375 -31.15625 L 23.453125 -31.15625 C 23.367188 -32.5625 22.851562 -33.664062 21.90625 -34.46875 C 20.957031 -35.28125 19.738281 -35.6875 18.25 -35.6875 C 16.96875 -35.6875 15.929688 -35.34375 15.140625 -34.65625 C 14.359375 -33.976562 13.96875 -33 13.96875 -31.71875 C 13.96875 -30.3125 14.628906 -29.210938 15.953125 -28.421875 C 17.273438 -27.640625 19.34375 -26.789062 22.15625 -25.875 C 24.96875 -24.925781 27.253906 -24.015625 29.015625 -23.140625 C 30.773438 -22.273438 32.296875 -21.015625 33.578125 -19.359375 C 34.859375 -17.703125 35.5 -15.570312 35.5 -12.96875 C 35.5 -10.488281 34.867188 -8.234375 33.609375 -6.203125 C 32.347656 -4.179688 30.515625 -2.566406 28.109375 -1.359375 C 25.710938 -0.160156 22.878906 0.4375 19.609375 0.4375 Z M 19.609375 0.4375 "/></g></g></g><g fill="#004aad" fill-opacity="1"><g transform="translate(370.344526, 732.105581)"><g><path d="M 35.1875 -43.5625 L 35.1875 -35.0625 L 23.640625 -35.0625 L 23.640625 0 L 13.03125 0 L 13.03125 -35.0625 L 1.484375 -35.0625 L 1.484375 -43.5625 Z M 35.1875 -43.5625 "/></g></g></g><g fill="#004aad" fill-opacity="1"><g transform="translate(407.013118, 732.105581)"><g><path d="M 14.453125 -35.0625 L 14.453125 -26.25 L 28.671875 -26.25 L 28.671875 -18.0625 L 14.453125 -18.0625 L 14.453125 -8.5 L 30.53125 -8.5 L 30.53125 0 L 3.84375 0 L 3.84375 -43.5625 L 30.53125 -43.5625 L 30.53125 -35.0625 Z M 14.453125 -35.0625 "/></g></g></g><g fill="#004aad" fill-opacity="1"><g transform="translate(440.579471, 732.105581)"><g><path d="M 53.1875 -43.5625 L 53.1875 0 L 42.578125 0 L 42.578125 -26.125 L 32.828125 0 L 24.265625 0 L 14.453125 -26.1875 L 14.453125 0 L 3.84375 0 L 3.84375 -43.5625 L 16.390625 -43.5625 L 28.609375 -13.40625 L 40.71875 -43.5625 Z M 53.1875 -43.5625 "/></g></g></g></svg>