<?xml version="1.0" encoding="UTF-8"?>
<!DOCTYPE svg PUBLIC "-//W3C//DTD SVG 1.1//EN" "http://www.w3.org/Graphics/SVG/1.1/DTD/svg11.dtd">
<!-- Creator: CorelDRAW (Evaluation Version) -->
<svg xmlns="http://www.w3.org/2000/svg" xml:space="preserve" width="206.956mm" height="93.5353mm" version="1.1" style="shape-rendering:geometricPrecision; text-rendering:geometricPrecision; image-rendering:optimizeQuality; fill-rule:evenodd; clip-rule:evenodd"
viewBox="0 0 4521.5 2043.52"
 xmlns:xlink="http://www.w3.org/1999/xlink"
 xmlns:xodm="http://www.corel.com/coreldraw/odm/2003">
 <defs>
  <style type="text/css">
   <![CDATA[
    .fil0 {fill:#144BC8}
    .fil2 {fill:#FD9A18;fill-rule:nonzero}
    .fil1 {fill:white;fill-rule:nonzero}
   ]]>
  </style>
 </defs>
 <g id="Layer_x0020_1">
  <metadata id="CorelCorpID_0Corel-Layer"/>
  <g id="_1911748438592">
   <g>
    <path class="fil0" d="M2268.17 661.86c130.8,0 250.53,16.39 343.07,43.56 -73.84,-12.68 -168.23,-20.3 -271.11,-20.3 -236.52,0 -428.25,32.44 -428.25,89.85 0,57.41 210.74,97.93 376.37,96.7 165.63,-1.23 307.73,-48.04 377.36,-69.58l-26.74 163.51c-95.48,31.87 -220.33,64.14 -370.7,64.14 -150.38,0 -309.24,-41.57 -393.87,-95.8l-26.66 -148.69c-4.22,-34.44 3.46,-54.88 54.73,-72.36 95.84,-32.68 220.68,-51.03 365.8,-51.03z"/>
    <path class="fil0" d="M2278.73 336.83c144.05,0 275.91,18.55 377.83,49.29 -81.32,-14.36 -185.27,-22.97 -298.58,-22.97 -260.48,0 -471.64,36.72 -471.64,101.69 0,64.98 208.87,105.55 428.84,105.14 219.97,-0.41 311.29,-43.18 394.73,-66.9l-23.57 175.39c-99.54,43.41 -242,74.72 -407.62,74.72 -165.61,0 -335.49,-28.8 -433.77,-78.69l-29.36 -198.02c-4.64,-38.98 3.81,-62.11 60.28,-81.9 105.55,-36.99 243.04,-57.76 402.85,-57.76z"/>
    <path class="fil0" d="M2280.85 0c161.06,0 308.48,19.92 422.43,52.92 -90.92,-15.41 -207.15,-24.66 -333.83,-24.66 -291.23,0 -527.32,39.42 -527.32,109.17 0,69.76 263.99,113.95 518.62,113.09 254.63,-0.86 302.64,-28.39 398.93,-49.86l-24.29 176.9c-117.57,38.72 -269.38,69.41 -454.54,69.41 -185.17,0 -375.1,-30.91 -484.99,-84.47l-32.82 -212.58c-5.19,-41.84 4.26,-66.68 67.39,-87.92 118.02,-39.71 271.73,-62.01 450.42,-62.01z"/>
   </g>
   <path class="fil1" d="M-0 1303.46l153.82 0 0 -108.05 -153.82 0 0 108.05zm0 390.92l153.82 0 0 -358.66 -153.82 0 0 358.66zm664.04 -190.59l-192.84 -221.35c0,0 -9.75,-7.5 -24.76,-7.5 -29.26,0 -30.76,24.76 -30.76,48.77l0 87.79 243.86 280.63 158.32 0 0 -496.72 -153.82 0 0 308.39zm-223.6 -257.36l-44.27 -51.02 -166.57 0 0 496.72 153.82 0 0 -368.41c0,-35.27 5.25,-78.04 48.02,-78.04 6,0 9,0.75 9,0.75zm453.2 102.8c29.26,-37.52 72.03,-45.77 102.8,-45.77l441.2 0c-6.75,-56.28 -58.53,-108.05 -126.06,-108.05l-417.94 0 0 153.82zm153.82 -13.51l-51.02 0c-66.03,0 -99.8,42.02 -102.8,123.05l0 235.6 153.82 0 0 -189.83 240.86 0 0 -108.05 -240.86 0 0 -60.78zm909.41 -140.31l-331.65 0c-69.78,0 -126.81,57.02 -126.81,127.56l0 143.31c0,62.28 49.52,87.04 87.79,87.04l66.03 0 0 -208.59c0,-11.25 2.25,-41.27 40.52,-41.27l268.62 0c36.77,0 89.29,9.01 123.05,51.77l0 -32.26c0,-70.53 -57.02,-127.56 -127.56,-127.56zm4.5 140.31l-31.51 0 0.75 210.09c0,10.5 -2.25,40.52 -40.52,40.52l-303.89 -0.75c-25.51,0 -69.03,-11.25 -87.79,-37.52l0 19.51c0,69.78 57.78,126.81 126.81,126.81l331.65 0c69.78,0 127.56,-57.02 127.56,-126.81l0 -105.8c0,-83.29 -43.52,-126.06 -123.05,-126.06zm640.78 60.78l-263.37 0c-39.77,0 -40.52,-30.01 -40.52,-40.52l0 -11.26c0,-2.25 0,-5.25 0.75,-8.25 -51.77,0 -122.31,24.76 -122.31,85.54 0,12.75 3.75,24.76 9.75,35.26 25.51,30.76 69.03,47.27 106.55,47.27l263.37 0c39.77,0 41.27,27.26 41.27,39.39l0 1.5c0,0 2.25,40.89 -41.27,40.89l-409.68 0c12.76,63.03 83.29,108.05 146.32,108.05l309.14 0c70.53,0 149.32,-60.78 149.32,-147.44 0,-78.41 -63.78,-150.44 -149.32,-150.44zm0 -201.09l-309.14 0c-69.78,0 -148.57,66.03 -148.57,149.32l0 11.26c0,12.75 2.25,25.51 5.25,36.77 22.51,-71.28 97.54,-89.29 164.32,-89.29l435.19 0c0,0 -29.26,-108.05 -147.07,-108.05zm629.53 138.81c-8.25,-17.26 -22.51,-35.26 -40.52,-39.02 -33.77,-7.5 -62.28,19.51 -81.79,57.78l-11.25 23.26 48.77 102.8 -98.29 0 -51.77 108.05 201.84 0 51.02 107.3 154.57 0c-60.78,-126.81 -172.58,-360.16 -172.58,-360.16zm-31.51 -66.03l-35.27 -72.78 -170.33 0 -238.6 498.97 153.82 0 170.32 -355.66c31.52,-61.53 69.78,-88.54 120.05,-70.53zm577 -72.78l-164.32 343.53c-21.76,42.89 -62.28,69.91 -103.55,69.91 -10.5,0 -21.01,-2.25 -31.51,-5.25l44.27 90.79 170.33 0 238.6 -498.97 -153.82 0zm-193.59 329.27l5.25 -11.26 -152.32 -318.02 -153.82 0 165.07 345.03c15.01,19.63 36.02,36.14 61.53,36.14 29.26,0 58.53,-20.26 74.28,-51.9zm547.74 -20.13l240.86 0 0 -108.05 -240.86 0 0 -60.78 -52.52 0c-59.28,0 -93.04,33.77 -101.3,99.04l0 259.62 417.94 0c75.03,0 121.55,-58.53 126.06,-108.05l-390.17 0 0 -81.79zm-153.82 -157.57c29.26,-36.02 71.28,-43.52 101.3,-43.52l442.7 0c-10.5,-60.78 -58.53,-108.05 -126.06,-108.05l-417.94 0 0 151.57z"/>
   <path class="fil2" d="M886.86 1975.88l8.56 64.78 -30.3 0 -4.99 -37.53 -22.07 0 -5.05 37.53 -30.23 0 8.59 -64.5 18.29 -116.1 38.98 0 18.23 115.82zm-30.6 -1.63l-7.21 -54.65 -7.2 54.65 14.41 0zm156.23 -92.55l29.68 0 20.01 78.29 0 -78.29 28.14 0 0 158.96 -29.68 0 -19.12 -76.14 0 76.14 -29.03 0 0 -158.96zm233.26 127.46c0,22.85 -12.99,34.3 -38.98,34.36 -25.92,0 -38.88,-11.45 -38.88,-34.36l0 -95.26c0,-22.85 12.96,-34.27 38.88,-34.27 25.98,0 38.98,11.42 38.98,34.27l0 95.26zm-30.05 -95.26c0,-5.94 -2.95,-8.96 -8.84,-9.02l-0.18 0c-5.82,0 -8.75,3.02 -8.75,9.02l0 95.26c0,5.94 2.96,8.93 8.84,8.93 5.94,0 8.93,-2.99 8.93,-8.93l0 -95.26zm165.35 126.75l-38.98 0 -18.29 -102.12 -8.59 -56.83 30.32 0 15.95 124.57 16.07 -124.57 30.3 0 -8.56 57.02 -18.23 101.94zm173.99 -57.02l8.56 57.02 -30.3 0 -4.99 -33.03 -22.07 0 -5.05 33.03 -30.23 0 8.59 -56.74 18.29 -102.22 38.98 0 18.23 101.94zm-30.6 -1.45l-7.21 -48.06 -7.2 48.06 14.41 0zm156.23 -122.13l70.72 0 0 28.79 -40.7 0 0 47.07 35 0 0 28.88 -35 0 0 47.07 40.7 0 0 28.79 -70.72 0 0 -180.6zm145.58 21.64l39.41 0c24.17,0.06 36.27,11.55 36.27,34.39l0 23.43c0,14.38 -6.56,23.71 -19.67,27.99l28.97 73.15 -32.76 0 -20.57 -68.38 -1.63 0 0 68.38 -30.02 0 0 -158.96zm30.02 25.37l0 41.38 3.63 0c3.23,0 5.33,-0.12 6.31,-0.43 3.79,-1.32 5.67,-4.16 5.67,-8.5l0 -23.43c0,-6.03 -2.92,-9.02 -8.84,-9.02l-6.77 0zm201.27 76.57l8.56 57.02 -30.3 0 -4.99 -33.03 -22.07 0 -5.05 33.03 -30.23 0 8.59 -56.74 18.29 -102.22 38.98 0 18.23 101.94zm-30.6 -1.45l-7.21 -48.06 -7.2 48.06 14.41 0zm156.23 -100.49l41.56 0c24.2,0.06 36.27,11.55 36.27,34.39l0 90.27c0,22.81 -12.59,34.24 -37.78,34.3l-40.06 0 0 -158.96zm30.02 25.37l0 108.22 8.96 0c5.88,0 8.84,-2.96 8.84,-8.93l0 -90.27c0,-6.03 -2.96,-9.02 -8.84,-9.02l-8.96 0zm201.42 102.09c0,22.85 -12.99,34.3 -38.98,34.36 -25.92,0 -38.88,-11.45 -38.88,-34.36l0 -95.26c0,-22.85 12.96,-34.27 38.88,-34.27 25.98,0 38.98,11.42 38.98,34.27l0 95.26zm-30.05 -95.26c0,-5.94 -2.95,-8.96 -8.84,-9.02l-0.18 0c-5.82,0 -8.75,3.02 -8.75,9.02l0 95.26c0,5.94 2.96,8.93 8.84,8.93 5.94,0 8.93,-2.99 8.93,-8.93l0 -95.26zm153.43 -53.85l30.02 0 0 75.86 17.79 0 0 -75.86 30.02 0 0 180.6 -30.02 0 0 -75.86 -17.79 0 0 75.86 -30.02 0 0 -180.6zm233.26 149.1c0,22.85 -12.99,34.3 -38.98,34.36 -25.92,0 -38.88,-11.45 -38.88,-34.36l0 -95.26c0,-22.85 12.96,-34.27 38.88,-34.27 25.98,0 38.98,11.42 38.98,34.27l0 95.26zm-30.05 -95.26c0,-5.94 -2.95,-8.96 -8.84,-9.02l-0.18 0c-5.82,0 -8.75,3.02 -8.75,9.02l0 95.26c0,5.94 2.96,8.93 8.84,8.93 5.94,0 8.93,-2.99 8.93,-8.93l0 -95.26zm165.44 73.15l27.77 -105.36 29.68 0 0 158.96 -28.94 0 0 -73.15 -17.7 73.15 -21.09 0 -18.32 -73.61 0 73.61 -29.22 0 0 -158.96 29.68 0 28.14 105.36zm136.83 -105.36l70.72 0 0 25.37 -40.7 0 0 41.38 35 0 0 25.46 -35 0 0 41.38 40.7 0 0 25.37 -70.72 0 0 -158.96zm221.62 127.46c0,22.85 -12.99,34.3 -38.98,34.36 -25.92,0 -38.88,-11.45 -38.88,-34.36l0 -95.26c0,-22.85 12.96,-34.27 38.88,-34.27 25.98,0 38.98,11.42 38.98,34.27l0 22.57 -30.05 0 0 -22.57c0,-5.94 -2.95,-8.96 -8.84,-9.02l-0.18 0c-5.82,0 -8.75,3.02 -8.75,9.02l0 95.26c0,5.94 2.96,8.93 8.84,8.93 5.94,0 8.93,-2.99 8.93,-8.93l0 -22.54 30.05 0 0 22.54zm152.63 -25.52l8.56 57.02 -30.3 0 -4.99 -33.03 -22.07 0 -5.05 33.03 -30.23 0 8.59 -56.74 18.29 -102.22 38.98 0 18.23 101.94zm-30.6 -1.45l-7.21 -48.06 -7.2 48.06 14.41 0zm110.42 -100.49l39.41 0c24.17,0.06 36.27,11.55 36.27,34.39l0 23.43c0,14.38 -6.56,23.71 -19.67,27.99l28.97 73.15 -32.76 0 -20.57 -68.38 -1.63 0 0 68.38 -30.02 0 0 -158.96zm30.02 25.37l0 41.38 3.63 0c3.23,0 5.33,-0.12 6.31,-0.43 3.79,-1.32 5.67,-4.16 5.67,-8.5l0 -23.43c0,-6.03 -2.92,-9.02 -8.84,-9.02l-6.77 0zm120.45 -25.37l70.72 0 0 25.37 -40.7 0 0 41.38 35 0 0 25.46 -35 0 0 41.38 40.7 0 0 25.37 -70.72 0 0 -158.96z"/>
  </g>
 </g>
</svg>
